<?xml version="1.0" encoding="utf-8"?>
<!-- Generator: Adobe Illustrator 18.1.1, SVG Export Plug-In . SVG Version: 6.00 Build 0)  -->
<svg version="1.1" id="圖層_1" xmlns="http://www.w3.org/2000/svg" xmlns:xlink="http://www.w3.org/1999/xlink" x="0px" y="0px"
	 viewBox="0 0 512 105.3" enable-background="new 0 0 512 105.3" xml:space="preserve">
<g>
	<path fill="#F2F2F2" d="M115.2,43.4h14.5V62c0,4.1-1,7.2-3.1,9.3c-2.1,2.1-4.2,3.1-6.6,3.1h-9.7c-2.6,0-4.9-1.2-6.8-3.7
		c-1.9-2.4-2.8-5.4-2.8-8.8v-31c0-3.3,0.9-6.2,2.8-8.7s4.2-3.7,6.9-3.7h9.7c6.1,0,9.3,4.1,9.7,12.4H125c-0.4-4.1-2-6.2-4.8-6.2h-4.8
		c-1.3,0-2.5,0.6-3.4,1.8s-1.4,2.7-1.4,4.4V62c0,1.7,0.5,3.2,1.4,4.4c1,1.2,2.1,1.8,3.4,1.8c3.1-0.2,4.7-2.3,4.8-6.2V49.6h-4.8v-6.2
		H115.2z"/>
	<path fill="#F2F2F2" d="M158.7,18.5h9.7V62c0,3.4-0.9,6.3-2.8,8.7c-1.9,2.5-4.2,3.7-6.8,3.7H149c-2.6,0-4.9-1.2-6.8-3.7
		c-1.9-2.4-2.8-5.4-2.8-8.8V18.5h9.7V62c0,1.7,0.5,3.1,1.4,4.3c0.9,1.2,2.1,1.8,3.4,1.8c1.3,0,2.5-0.6,3.4-1.8
		c0.9-1.2,1.4-2.7,1.4-4.3L158.7,18.5L158.7,18.5z"/>
	<path fill="#F2F2F2" d="M182.8,74.5v-56h9.7v55.9h-9.7V74.5z"/>
	<path fill="#F2F2F2" d="M211.8,74.5V24.8h-9.7v-6.2h29v6.2h-9.7v49.7H211.8z"/>
	<path fill="#F2F2F2" d="M236,74.5V30.9c0-3.4,0.9-6.3,2.8-8.8c1.9-2.4,4.2-3.7,6.8-3.7h9.7c2.6,0,4.9,1.2,6.8,3.7
		c1.9,2.4,2.8,5.4,2.8,8.7v43.5h-9.7V49.6h-9.7v24.9H236z M245.7,43.4h9.7V30.9c0-1.7-0.5-3.1-1.4-4.4c-1-1.2-2.1-1.8-3.4-1.8
		c-1.3,0-2.5,0.6-3.4,1.8s-1.4,2.7-1.4,4.4v12.5H245.7z"/>
	<path fill="#F2F2F2" d="M274.7,74.5v-56H294c2.6,0,4.9,1.2,6.8,3.7c1.9,2.4,2.8,5.4,2.8,8.7v3.4c0,2.8-0.7,5.5-2.2,8
		c-1.5,2.6-4,3.9-7.4,3.9h4.8c1.3,0,2.5,0.6,3.4,1.8c1,1.2,1.4,2.7,1.4,4.4v22H294V55.8c0-1.7-0.5-3.2-1.4-4.4
		c-1-1.2-2.1-1.8-3.4-1.8h-4.8v24.9H274.7z M284.3,43.4h4.8c1.3,0,2.5-0.6,3.4-1.8c1-1.2,1.4-2.7,1.4-4.4V31c0-1.7-0.5-3.1-1.4-4.4
		c-1-1.2-2.1-1.8-3.4-1.8h-4.8V43.4z"/>
	<path fill="#F2F2F2" d="M346.8,18.5h9.7v34.7c0,5.8-1.6,10.8-4.9,15s-7.1,6.3-11.7,6.3h-12.5v-56h9.7v49.7h4.8
		c1.3,0,2.5-0.6,3.4-1.8c0.9-1.2,1.4-2.7,1.4-4.3V18.5H346.8z"/>
	<path fill="#F2F2F2" d="M375.8,18.5h9.7c2.6,0,4.9,1.2,6.8,3.7c1.9,2.4,2.8,5.4,2.8,8.7V62c0,3.4-0.9,6.3-2.8,8.7
		c-1.9,2.5-4.2,3.7-6.8,3.7h-9.7c-2.6,0-4.9-1.2-6.8-3.7c-1.9-2.4-2.8-5.4-2.8-8.8v-31c0-3.4,0.9-6.3,2.8-8.8
		C370.9,19.8,373.1,18.5,375.8,18.5z M375.8,30.9V62c0,1.7,0.5,3.1,1.4,4.3c0.9,1.2,2.1,1.8,3.4,1.8s2.5-0.6,3.4-1.8
		c0.9-1.2,1.4-2.7,1.4-4.3V30.9c0-1.7-0.5-3.1-1.4-4.4c-1-1.2-2.1-1.8-3.4-1.8s-2.5,0.6-3.4,1.8C376.3,27.8,375.8,29.3,375.8,30.9z"
		/>
	<path fill="#F2F2F2" d="M409.6,74.5v-56h9.7v55.9h-9.7V74.5z"/>
	<path fill="#F2F2F2" d="M462.8,62c-0.4,8.3-3.6,12.4-9.7,12.4h-9.7c-2.6,0-4.9-1.2-6.8-3.7c-1.9-2.4-2.8-5.4-2.8-8.8v-31
		c0-3.3,0.9-6.2,2.8-8.7s4.2-3.7,6.9-3.7h9.7c6.1,0,9.3,4.1,9.7,12.4H458c-0.4-4.1-2-6.2-4.8-6.2h-4.8c-1.3,0-2.5,0.6-3.4,1.8
		c-1,1.2-1.4,2.7-1.4,4.4V62c0,1.7,0.5,3.1,1.4,4.3c0.9,1.2,2.1,1.8,3.4,1.8h4.8c2.8,0,4.4-2.1,4.8-6.2h4.8V62z"/>
	<path fill="#F2F2F2" d="M472.5,74.5v-56h24.2v6.2h-14.5v18.6h9.7v6.2h-9.7v18.6h14.5v6.2h-24.2V74.5z"/>
</g>
<g>
	<rect x="97.8" y="84.8" fill="#F2F2F2" width="401.6" height="6.9"/>
	<g>
		<g>
			<path fill="none" d="M92.717,84.8v11.983h411.765v-6.549v-0.313v0.271v0.541v0.541v0.271v0.135
				c0.003,0.03,0.035-0.092,0.051-0.132c0.317-0.944,0.553-2.107,0.549-3.299c0.004-1.192-0.232-2.355-0.549-3.299
				c-0.016-0.04-0.048-0.162-0.051-0.132v0.135v0.271v0.541v0.541v0.271v-0.313v-6.549H97.8v10.165h396.518v-3.099v-0.097
				c0,0,0-0.135,0,0v0.486v0.973v0.973v0.486v0.243c-0.003,0.066-0.035-0.02-0.051-0.024c-0.317-0.369-0.553-0.957-0.549-1.574
				c-0.004-0.617,0.232-1.205,0.549-1.574c0.016-0.004,0.048-0.09,0.051-0.024v0.243v0.486v0.973v0.973v0.486c0,0.135,0,0,0,0
				v-0.097v-3.099H102.883v-1.816L92.717,84.8z"/>
			<path fill-rule="evenodd" clip-rule="evenodd" fill="#F2F2F2" d="M96.708,84.845c0.084-0.202,0.107,0.329,0.161,0.476
				c-0.035,0.7-0.06,1.5-0.161,1.461C96.708,86.134,96.708,85.49,96.708,84.845z"/>
			<path fill-rule="evenodd" clip-rule="evenodd" fill="#F2F2F2" d="M151.003,96.057c2.26-0.017,2.33,0.152,4.287,0.161
				c1.778,0.043,1.542-0.085,2.385-0.121c10.555,0.147,20.801,0.077,29.551-0.161c-0.225,0.086,0.681,0.077,1.434,0.081
				c-0.088,0.181-0.83,0.306-1.91,0.403c-10.552,0.157-20.258,0.141-30.507,0.363C157.095,96.321,150.651,96.476,151.003,96.057z"/>
			<path fill-rule="evenodd" clip-rule="evenodd" fill="#F2F2F2" d="M261.105,96.581c0.704,0.075,2.463,0.061,2.385,0.202
				C262.11,96.765,261.316,96.698,261.105,96.581z"/>
			<path fill-rule="evenodd" clip-rule="evenodd" fill="#F2F2F2" d="M270.638,86.867c1.922-0.062,5.953-0.079,6.672,0.081
				c2.673-0.137,5.223-0.284,9.533-0.282c0.378,0.075,0.797,0.148,0.956,0.242C282.983,87.213,271.542,87.703,270.638,86.867z"/>
			<path fill-rule="evenodd" clip-rule="evenodd" fill="#F2F2F2" d="M361.677,95.17c-2.018-0.04,1.68-0.109,0-0.121
				c0.344-0.09,2.714-0.019,2.379,0.08C363.363,95.152,361.598,95.083,361.677,95.17z"/>
			<path fill-rule="evenodd" clip-rule="evenodd" fill="#F2F2F2" d="M416.963,95.654c-0.133-0.105,0.176-0.173,1.432-0.161
				C418.528,95.598,418.22,95.666,416.963,95.654z"/>
			<path fill-rule="evenodd" clip-rule="evenodd" fill="#F2F2F2" d="M496.265,94.284c3.893,0.129,3.775-0.075,5.747,0.029
				c0.014-0.324,0.032-0.717,0.052-1.178c-0.012-1.006-0.024-2.04-0.036-3.097l-0.007,0.315l-0.001,0.079l0,0.035l0.027-0.107
				l0.101-0.448c0.126-0.615,0.195-1.321,0.158-2.018c-0.017-0.348-0.059-0.691-0.117-1.017l-0.098-0.476l-0.056-0.227
				c-0.02-0.081-0.043-0.168-0.035-0.1l-0.002,0.328c-0.001,0.069-0.001,0.404-0.001-0.127c0-1.343,0-2.703,0-4.071
				c-2.701-0.009-5.463-0.019-8.143-0.028c-1.826,0-3.594,0.001-5.213,0.001c-2.586,0.026-4.975,0.158-7.626,0.202
				c-10.542,0.174-22.26,0.102-32.889,0.121c-6.131,0.011-12.449,0.046-17.633-0.081c4.339-0.609,14.966-0.328,21.924-0.282
				c1.373-0.031,2.46-0.087,3.336-0.161c8.547,0.063,15.968-0.054,22.998-0.139c3.518-0.026,6.933-0.051,10.343-0.076
				c1.705,0.01,3.408,0.02,5.123,0.03c2.67,0.034,5.358,0.068,8.09,0.102c-0.013,1.115-0.026,2.236-0.038,3.362l-0.01,0.836
				l-0.005,0.417l-0.001,0.104l-0.001-0.031l-0.003-0.078l-0.011-0.311l-0.006-0.154l-0.003-0.076c0,0-0.004-0.043,0.002-0.02
				l0.024,0.093c0.248,0.834,0.398,1.877,0.319,2.863c-0.035,0.491-0.116,0.96-0.218,1.385l-0.08,0.312l0.001-0.126l0.003-0.262
				c0.004,1.455,0.007,2.9,0.011,4.386c-1.627,0.004-3.31,0.013-5.181,0.056c-0.672-0.018-1.349-0.035-1.516-0.081
				C494.527,94.509,495.734,94.37,496.265,94.284z"/>
			<path fill-rule="evenodd" clip-rule="evenodd" fill="#F2F2F2" d="M445.743,83.385c-1.582,0.056-4.931,0.085-4.765-0.121
				c-1.8,0.113-3.807-0.036-6.194,0c-13.332-0.404-31.295-0.258-48.144-0.524c-0.632-0.188,1.063-0.179,1.908-0.242
				c6.712,0.116,11.652-0.216,18.113-0.041c8.3-0.247,17.885,0.235,25.738,0.323c3.026,0.184,8.679,0.275,13.823,0.242
				C446.713,83.076,446.239,83.292,445.743,83.385z"/>
			<path fill-rule="evenodd" clip-rule="evenodd" fill="#F2F2F2" d="M399.031,83.546v0.121c-4.082,0.096-8.029-0.06-11.912,0.04
				c0.69-0.17,3.072-0.197,4.29-0.322C394.397,83.443,396.715,83.387,399.031,83.546z"/>
			<path fill-rule="evenodd" clip-rule="evenodd" fill="#F2F2F2" d="M385.211,82.619c0.349,0.196-4.225,0.127-5.243,0.081
				C381.605,82.574,383.314,82.697,385.211,82.619z"/>
			<path fill-rule="evenodd" clip-rule="evenodd" fill="#F2F2F2" d="M288.452,82.418c-0.606,0.147-3.673,0.482-5.716,0.242
				c-4.609,0.283-10.113,0.165-16.208,0.282c0.451-0.164-2.581-0.14-3.337-0.08c0.196,0.136,1.848-0.108,1.432,0.08
				c-3.944,0.076-7.824,0.009-10.486,0.121c-0.136-0.065,0.451-0.07,0.472-0.121c-0.074-0.047-0.865-0.034-1.425-0.041
				c0.162-0.079,4.166-0.06,2.382,0.041c0.855,0.005,1.005-0.049,1.908-0.041c-1.781-0.056,0.575-0.228-2.385-0.201
				c0.107-0.058,1.42-0.014,1.429-0.081c0.837,0.037,0.875,0.141,1.429,0.201c1.444-0.08,7.151-0.012,5.722-0.201
				c1.952-0.129,6.253,0.292,8.101,0.04C277.707,82.723,280.929,82.457,288.452,82.418z"/>
			<path fill-rule="evenodd" clip-rule="evenodd" fill="#F2F2F2" d="M252.229,83.063c-0.967-0.03-1.943-0.122-0.954-0.201
				C252.319,82.867,252.298,82.963,252.229,83.063z"/>
			<path fill-rule="evenodd" clip-rule="evenodd" fill="#F2F2F2" d="M248.895,83.184c-1.499,0.019-1.259-0.108-2.385-0.121
				C247.209,82.955,249.126,83.08,248.895,83.184z"/>
			<path fill-rule="evenodd" clip-rule="evenodd" fill="#F2F2F2" d="M242.22,82.901c-0.211,0.151-2.708-0.014-4.29,0.081
				C238.096,82.849,240.678,82.919,242.22,82.901z"/>
			<path fill-rule="evenodd" clip-rule="evenodd" fill="#F2F2F2" d="M235.072,82.982c-0.808,0.066-1.184,0.169-2.861,0.161
				C232.722,83.052,233.657,82.997,235.072,82.982z"/>
			<path fill-rule="evenodd" clip-rule="evenodd" fill="#F2F2F2" d="M184.07,81.37c-1.541-0.031-2.491-0.112-2.858-0.242
				C182.046,81.219,183.925,81.221,184.07,81.37z"/>
			<path fill-rule="evenodd" clip-rule="evenodd" fill="#F2F2F2" d="M273.202,88.786c4.118,0.102,8.53,0.213,12.393,0.04
				c8.855,0.127,19.642,0.384,28.599,0.161c3.147,0.145,6.75,0.006,10.008,0.081c15.473,0.353,31.536-0.084,46.71-0.564
				c1.115,0,2.223,0,3.337,0c4.611-0.116,9.135-0.347,14.299-0.443c10.633-0.197,23.261-0.033,34.316,0.08
				c0.048,0.064-0.062,0.14,0.954,0.121c10.78,0.199,21.012,0.638,32.413,0.645c2.78,0.002,5.396-0.133,8.104,0
				c2.898-0.131,6.53-0.2,10.006-0.282c3.258,0.053,7.503,0.052,11.612-0.002c2.05-0.042,4.068-0.083,5.92-0.121
				c0.876-0.032,1.713-0.062,2.495-0.09c0.254-0.04,0.49-0.076,0.704-0.11c0.268,0.027,0.524,0.037,0.789,0.037
				c0.004-0.546,0.008-1.087,0.012-1.628c0-0.021,0.001-0.095,0.001-0.072l0.001,0.367l0.003,0.732l0.003,0.731l0.002,0.365
				l0.001,0.182c-0.001,0.025,0.003,0.072-0.002,0.08l-0.02-0.015c-0.213-0.162-0.375-0.471-0.374-0.803
				c-0.005-0.332,0.153-0.649,0.372-0.817c0.078-0.164,0.058,0.199,0.062,0.429l0.004,0.734l0.009,1.201
				c0.01-0.514,0.019-1.033,0.029-1.561c-0.147,0.004-0.296,0.008-0.447,0.012c-20.532,0.036-47.554,0.084-68.542,0.121
				c-1.978,0.137-3.459,0.081-5.722,0.161c-6.132-0.193-17.644-0.02-23.829,0.161c-3.522-0.197-9.493-0.058-14.776-0.161
				c-4.137-0.081-7.868-0.32-10.965-0.121c-9.302-0.093-19.152,0.12-29.55-0.161c-4.208-0.132-8.495-0.266-12.872-0.403
				c-5.947,0.061-11.551-0.012-17.634,0.081c-0.075,0.047,0.082,0.114-0.476,0.121c-3.551-0.074-9.181,0.264-13.823,0.121
				c-7.446,0.274-13.982,0.748-26.214,0.645c-4.801,0.416-15.284,0.272-21.927,0.444c-5.097-0.072-13.451-0.129-17.157-0.444
				c-3.28-0.045-6.314-0.111-10.484-0.081c-1.236-0.043-1.774-0.146-3.336-0.161c-0.67,0.065-1.646,0.103-2.864,0.121
				c-7.021-0.275-18.292-0.255-26.686-0.081c-0.96-0.154-3.205,0.037-4.292-0.121c-14.106,0.205-29.463,0.676-43.854,0.201
				c-2.354-0.493-6.34-0.751-7.148-1.29c-1.201-0.086-3.265-0.1-3.814-0.242c0.23-0.127-0.678-0.157-0.953-0.242
				c-4.246-0.214-12.481-0.5-17.16-0.202c-2.324,0.392-5.159,0.79-1.429,1.21c-0.526,0.837,5.344,1.82-6.196,2.015
				c-1.014,0.186-1.54,0.337-2.086,0.508c-0.506,0.171-0.848,0.36-0.543,0.621c0.614,0.071,1.168,0.134,1.713,0.197
				c0.601,0.072,1.189,0.143,1.813,0.218c1.254,0.146,2.686,0.289,4.823,0.391c-0.892,0.077-0.055,0.101,0,0.201
				c2.011,0.032,5.044-0.023,5.246,0.161c-5.047-0.05-5.714,0.269-9.536,0.323c-1.06,0.095-1.754,0.205-2.247,0.323
				c-0.554,0.117-0.983,0.242-1.328,0.364c-0.724,0.245-1.283,0.482-3.612,0.643c-1.129-0.033-1.623-0.06-2.416-0.062
				c-0.005-0.393-0.012-0.883-0.022-1.597c-0.27-1-0.351,1.792-0.524-1.787c-0.121,1.03-0.14,2.362-0.15,4.08
				c0.595,0.003,1.242,0.007,1.941,0.011c0.473,0.108,1.325,0.197,2.463,0.274c0.592,0.033,1.229,0.068,1.906,0.106
				c0.635,0.029,1.305,0.059,2.003,0.091c1.941,0.091,4.189,0.197,6.275,0.295c12.348,0.005,20.46,0.538,30.981,0.444
				c0.294,0.252,4.154,0.225,6.198,0.121c0.875,0.1,0.332,0.321,1.907,0.363c1.318-0.111-0.429-0.169-0.478-0.282
				c1.755-0.088,5.826-0.151,7.148-0.04c3.205-0.203,9.302-0.121,13.349-0.323c1.537,0.165,3.817,0.268,7.148,0.282
				c0.059-0.143,0.782-0.23,1.426-0.323c9.111-0.233,14.029,0.251,22.882,0c2.414,0.118,6.12,0.127,10.006,0.121
				c9.706,0.479,24.199,0.509,36.226,0.161c3.337,0.415,8.693,0.146,12.87,0.242c6.632,0.152,13.224,0.515,20.019,0.282
				c0.785-0.001,0.265-0.112,0.953-0.121c4.98,0.039,11.519-0.081,17.157-0.081c4.021,0,7.896,0.154,11.916,0.081
				c4.67-0.086,8.186-0.253,10.965-0.605c3.63,0.016,7.747-0.462,11.437-0.242c0.713-0.048,0.56-0.167,1.905-0.161
				c0.938-0.012,0.948,0.055,1.432,0.081c-0.043-0.15-0.534-0.115,0-0.241c-2.668,0.075-3.941,0.06-6.195,0.201
				c-0.647-0.013-0.912-0.058-1.908-0.041c-5.182,0.25-11.229,0.54-18.11,0.685c-6.629,0.14-13.52-0.051-18.113,0.201
				c-1.091-0.015-0.635-0.161-1.432-0.201c-2.477,0.141-4.668-0.05-7.625,0c-2.079,0.035-3.834,0.229-6.196,0.242
				c-4.79,0.025-7.804-0.159-13.347-0.161c-2.281-0.269-7.76-0.098-8.101-0.363c1.063-0.139,3.378,0.166,4.764,0
				c-0.947-0.041-2.032-0.07-2.382-0.161c4.882-0.272,6.701-0.803,12.868-0.967c5.145,0.032,8.869-0.056,11.917-0.201
				c16.56,0.241,39.795,0.106,56.245-0.202c4.056,0.115,7.466,0.129,12.391,0.04c5.699,0.534,19.418-0.16,24.785,0.161
				c2.445-0.409,10.344-0.212,12.868,0c0.958-0.279,4.787-0.171,7.151-0.081c0.009,0.059-2.009,0.128,0,0.121
				c0.938,0.012,0.944-0.055,1.429-0.081c0.863,0.088,1.992,0.154,2.385,0.282c1.767,0.028,2.044-0.069,3.811-0.04
				c-0.479,0.08-0.823,0.172-1.904,0.202c-2.56,0.055-2.92-0.076-4.292-0.121c0.061,0.101,0.912,0.126-0.474,0.161
				c-0.641-0.251-3.06,0.062-4.29-0.161c0.886-0.006,1.591-0.027,1.907-0.081c-1.865,0.039-4.093,0.087-5.723,0.121
				c0.508-0.002,1.212,0.019,0.476,0.04c16.802,0.464,31.538,0.256,48.141,0.161c0.901,0.099,2.653,0.125,4.29,0.161
				c4.8-0.104,8.225-0.102,9.533-0.524c-5.762,0.008-10.307,0.097-19.542,0.081c-1.914-0.107-3.398-0.25-3.814-0.484
				c7.402-0.153,15.341,0.129,22.403,0c1.013-0.018,1.426-0.076,2.385-0.081c5.903-0.029,8.865,0.071,12.868,0.121
				c7.757,0.096,16.083,0.012,23.834,0.081c1.708,0.015,3.394,0.204,5.241,0.04c-4.209-0.108-8.854-0.153-11.915-0.081
				c-4.368-0.139-11.888-0.188-17.16-0.202c-10.448-0.336-18.278-0.081-30.979-0.242c-0.645-0.214-2.176-0.173-4.292-0.202
				c0.15-0.241-1.435-0.335-3.811-0.363c-1.325,0.06,0.827,0.165-0.479,0.202c-1.366-0.073-2.65-0.152-2.861-0.323
				c1.267,0,2.722-0.015,3.34,0.041c-0.439-0.192-3.353-0.174-3.34-0.403c9.484-0.105,17.85-0.478,27.17-0.363
				c1.236,0.111,1.856,0.273,3.337,0.363c0.999-0.168-2.441-0.265-2.858-0.443c2.789-0.127,7.102-0.125,9.531-0.282
				c0.562,0.06,0.411,0.18,1.907,0.161c8.93,0.098,14.943-0.123,21.924-0.201c5.719-0.064,10.945-0.035,16.845-0.02
				c0.001-0.62,0.003-1.243,0.004-1.869l0.002-0.772l0.023-0.949c-0.007-0.578-0.015-1.16-0.022-1.745
				c-0.001-0.642-0.002-1.289-0.002-1.94c-2.747,0.021-5.585,0.043-8.568,0.065c-0.759-0.03,0.11-0.197-1.426-0.161
				c-7.053-0.06-17.126,0.104-20.974-0.483c-2.997,0.039-3.762-0.112-5.719-0.161c-0.889,0.032-1.747,0.067-2.858,0.081
				c-1.039-0.155-4.25-0.05-6.675-0.081c-2.702-0.034-4.85-0.227-7.628-0.282c-4.833-0.095-6.831,0.034-9.054,0.121
				c-2.743,0.107-6.825,0.144-8.58,0.403c0.814,0.065,1.689,0.126,2.385,0.201c3.112-0.152,6.686-0.457,10.959-0.443
				c2.691,0.009,4.38,0.258,7.154,0.161v0.121c14.637-0.159,21.546,0.888,35.747,0.766c3.68,0.185,7.111,0.393,10,0.645
				c-4.963-0.045-6.628,0.192-11.432,0.161c-12.141,0.587-28.668,0.124-42.422,0.322c-10.232-0.199-19.02,0.087-29.072,0.121
				c-1.438-0.228-6.193-0.175-9.533-0.242c-0.973,0.025-0.136,0.204-1.908,0.161c-7.17-0.03-7.708-0.672-12.868-0.806
				c-0.926-0.024-2.572,0.044-3.817,0.04c-1.784-0.005-5.231-0.095-6.669-0.081c-5.202,0.052-10.054,0.327-15.73,0.323
				c-8.122-0.025-17.32-0.053-26.216-0.081c-7.267-0.261-18.347,0.033-27.643-0.202c-7.249,0.263-18.965-0.105-25.741,0.363
				c-1.253,0.012-0.375-0.156-1.906-0.121c-4.111,0.199-8.771,0.112-11.441,0.443c-1.106,0.013-1.827-0.006-2.383-0.04
				c-12.687,0.403-25.947,1.01-42.421,0.846c-5.283-0.4-10.093-0.839-15.73-1.209c-4.646-0.494-8.755-1.033-16.679-1.25
				c-8.534,0.25-14.557,0.913-19.066,1.37c-3.171,0.064-4.426,0.332-5.243,0.484c-7.382,0.206-13.404,0.355-20.973,0.443
				c-15.173,0.176-24.356-0.941-39.083-0.806c-0.638-0.04-0.935-0.109-1.908-0.121c-0.892,0.251-5.852-0.191-6.672,0.202
				c2.483,0.263,7.919,0.436,12.391,0.403c1.501,0.231,4.157,0.098,6.675,0.161c3.159,0.079,5.927,0.359,8.58,0.444
				c0.765,0.024,1.614-0.049,1.905-0.04c2.125,0.056,3.863,0.225,6.675,0.242c6.275,0.037,8.205-0.036,13.82-0.121
				c11.375-0.173,22.872-0.306,26.689-1.128c4.266,0.007,5.568-0.574,9.061-0.766c4.816-0.043,3.828-0.166,8.577-0.121
				c9.481,0.905,15.93,2.066,28.599,2.701c2.999-0.031,5.887-0.043,7.625,0.121c-13.511,0.612-39.991-0.147-54.813,0.524
				c1.622,0.193,3.724,0.08,5.722,0.081c10.973,0,23.076,0,36.223,0c7.815-0.033,15.176-0.423,23.833-0.363
				c5.058,0.035,8.993,0.184,14.776,0.161c0.202,0.063,1.496,0.035,0.953,0.161c6.75-0.077,12.403,0.654,18.587,0.282
				C273.411,88.708,272.245,88.704,273.202,88.786z M110.49,90.817c0.597,0.01,0.479,0.08,0,0.081
				c0.077,0.047,0.866,0.034,1.426,0.04c-0.126,0.083-1.773,0.038-1.905,0.121c0.765,0.07,1.786,0.118,2.861,0.161
				C110.201,91.384,108.446,90.953,110.49,90.817z M140.994,92.067c0.442,0.385-6.155,0.444-7.627,0.403
				c-1.488-0.041-4.002-0.228-2.385-0.363C132.777,91.957,138.185,92.234,140.994,92.067z M154.338,91.543
				c-0.153-0.094,0.077-0.155,0.479-0.202c2.633,0.187,8.593,0.085,10.483,0.403C160.73,91.698,159.48,91.574,154.338,91.543z
				 M169.59,92.188c-0.346-0.11,0.947-0.081,0.957-0.161c0.628,0.081,2.066,0.094,2.377,0.202
				C171.273,92.26,171.094,92.168,169.59,92.188z M171.019,91.22c5.384,0.124,11.438,0.273,17.641,0.242
				c5.342-0.027,10.465-0.358,14.771-0.242c-4.755,0.243-12.261,0.253-16.205,0.564c-4.683-0.084-10.301-0.278-13.823-0.121
				C173.018,91.482,170.798,91.454,171.019,91.22z M174.356,92.228v-0.121c1.982-0.037,5.569-0.102,5.722,0.121
				C177.717,92.318,176.807,92.284,174.356,92.228z M180.552,92.349c0.372-0.036,0.514-0.091,0.479-0.161
				C183.136,92.164,182.674,92.405,180.552,92.349z M181.031,93.155c0.602,0.137,2.331,0.017,3.337,0.04
				c1.947,0.045,3.121,0.218,4.763,0.242c3.026,0.044,4.205-0.189,8.101-0.161c1.224-0.004,0.768-0.15,1.432-0.201
				c18.015-0.306,34.505-0.438,55.292-0.041c-0.849,0.406-6.958,0.245-6.198,0.847c-11.271,0.151-19.73-0.169-29.075,0.242
				c-6.513,0.005-11.877-0.182-19.542-0.202C191.247,93.901,183.43,93.869,181.031,93.155z M214.394,94.324
				c1.559-0.011,1.38,0.125,2.385,0.161c3.135-0.024,4.59,0.096,6.672,0.161c4.99,0.086,15.166-0.206,18.59,0.121
				c-3.014-0.085-4.899,0.308-8.101,0.201c-4.365,0.523-8.953,0.728-18.592,0.524c-2.051-0.043-4.169-0.234-6.196-0.282
				c-3.776-0.089-7.616,0.068-9.531-0.161C200.874,94.497,211.01,94.696,214.394,94.324z M204.861,91.18
				c1.085-0.115,1.842-0.024,3.817-0.081C208.516,91.288,206.036,91.188,204.861,91.18z M275.881,90.898
				c6.393-0.014,12.582-0.152,19.542-0.081c6.455,0.066,9.92,0.325,18.11,0.282c2.399-0.012,3.955-0.161,7.628-0.201
				c4.108-0.045,8.055,0.117,10.962-0.161c4.588,0.071,9.039,0.197,12.87-0.041c-1.189,0.316-6.822,0.605-10.487,0.847
				c-20.476-0.073-40.288,0.173-58.625-0.524V90.898z M371.212,90.616c0.102-0.058,1.419-0.014,1.425-0.081
				c4.857,0.139,8.756-0.057,12.394-0.08c1.732-0.011,3.476,0.107,5.719,0.121c2.991,0.018,6.914-0.206,8.104,0.081
				c2.78-0.174,7.879,0.029,10.962-0.161c-0.144,0.2-4.857,0.361-1.904,0.564c1.263-0.081,1.246-0.271,2.38-0.363
				c2.982-0.01,4.951,0.065,5.246,0.282c-3.993,0.289-15.809,0.349-20.974,0.161c-3.524,0.134-6.395,0.019-10.009-0.04
				c-0.225,0.086,0.681,0.077,1.429,0.081c-4.424,0.191-9.08-0.444-13.823-0.363C371.339,90.793,372.199,90.626,371.212,90.616z
				 M416.963,90.777c0.993,0.024,1.543,0.085,2.385,0.121c-0.211,0.117-1.005,0.184-2.385,0.201
				C415.633,91.015,416.271,90.893,416.963,90.777z M441.748,88.963c6.859-0.054,13.883-0.109,20.496-0.161
				c9.478-0.078,21.9,0.08,31.459-0.161c0.677,0.023,1.682,0.058,2.731,0.094l0.009,1.024l0-1.406
				c-0.003-0.22,0.006-0.496-0.006-0.67c-0.05,0.024-0.097,0.055-0.139,0.093c-0.174,0.149-0.253,0.428-0.184,0.661
				c0.032,0.116,0.095,0.217,0.175,0.291c0.04,0.037,0.083,0.068,0.129,0.091c0.016,0.032,0.012-0.045,0.012-0.098l-0.001-0.164
				l-0.001-0.327c-0.002-0.435-0.004-0.865-0.006-1.29l-0.002-0.318l-0.002,0.059l-0.004,0.132
				c-0.016,0.362-0.031,0.703-0.045,1.016c-0.304,0.027-0.562,0.063-0.761,0.11l-1.037-0.015c-0.768,0.003-1.532,0.007-2.294,0.01
				c-1.791,0.025-3.568,0.05-5.327,0.075c-3.51,0.073-6.94,0.144-10.225,0.212c-8.903-0.118-18.682,0.172-28.6-0.04
				c-2.236-0.048-3.908-0.231-6.194-0.282c-1.993-0.012-4.411-0.027-6.675-0.04c-3.251-0.067-6.386-0.267-9.533-0.322
				c-1.447,0-3.35,0-4.766,0c-0.938-0.021-1.527-0.132-2.382-0.161c-2.647-0.09-5.895-0.021-8.101-0.161
				c-7.845,0.052-14.913,0.099-24.31,0.161c4.211-0.222,8.778-0.413,10.008-0.887c4.735-0.009,9.169-0.07,13.823,0
				c3.355,0.051,4.502,0.117,10.012,0.081c2.481-0.042,4.842-0.082,7.148-0.121c6.177-0.024,12.535,0.121,18.587,0.121
				c5.168,0,10.321-0.165,14.302,0.04c8.303-0.104,18.569,0.175,25.735-0.202c2.285,0.063,4.625,0.067,6.926,0.047
				c0.957-0.014,1.907-0.029,2.84-0.043c0.782-0.017,1.549-0.034,2.292-0.051c0.008,0.087,0.015,0.172,0.023,0.255
				c0.001,0.3,0.003,0.598,0.004,0.895c-0.003,0.271,0.022,0.712-0.044,0.639c-0.089,0.076-0.143,0.089-0.127,0.106
				c-0.013,0.014,0.032,0.031,0.104,0.099c0.01,0.169-0.016,0.529-0.022,0.793l-0.016,0.437c-0.005,0.129-0.011,0.363-0.016,0.305
				c-0.043,0.048-0.085,0.059-0.127,0.029c-0.715-0.065-1.471-0.134-2.267-0.206c-0.386-0.028-0.782-0.057-1.188-0.087
				c-0.638-0.023-1.291-0.047-1.961-0.072c-2.689-0.084-5.675-0.118-8.983-0.065c-6.865,0.11-10.89,0.764-16.205,0.967
				c-2.898-0.16-5.016,0.062-8.102,0.04c-4.652-0.033-9.936-0.314-16.685-0.161c0.935-0.418,0.926-0.733,2.385-1.048
				C443.943,89.154,441.757,89.151,441.748,88.963z M382.829,87.376c-0.153,0.095-0.757,0.151-0.477,0.282
				c-2.5-0.152-5.482,0.085-7.625,0.202c-7.1,0.102-12.527,0.181-19.545,0.282c-1.472-0.05-2.46-0.141-3.814-0.201
				c-4.871-0.027-9.727-0.055-14.3-0.081c-4.953,0.027-10.123,0.055-14.776,0.081c-5.168-0.007-10.415-0.315-14.776-0.04
				c-5.153-0.058-12.287-0.299-16.681-0.161c-4.29-0.216-11.525-0.141-17.16-0.322c-10.953,0.154-17.859,0.717-30.025,0.363
				c4.244-0.241,10.717-0.061,13.823-0.363c4.556,0.065,8.748-0.226,11.913-0.322c2.731-0.049,6.177-0.11,9.058-0.161
				c3.503-0.101,5.468-0.269,10.962-0.282c2.18,0,4.247,0,6.672,0c5.052-0.011,10.697,0.222,14.776,0.202
				c1.109-0.006,2.246-0.088,3.337-0.081c2.578,0.016,5.71,0.196,8.58,0.201c0.438,0.001,1.916-0.086,2.385-0.08
				c1.415,0.017,2.931,0.133,4.285,0.161c9.183,0.192,21.574,0.101,32.889,0.161c2.304,0.012,4.4,0.094,6.675,0.081
				c1.527-0.009,3.205-0.092,4.766-0.081C376.918,87.237,379.587,87.49,382.829,87.376z M271.298,88.545
				c-1.305-0.003-0.961,0.067-1.91,0C269.012,88.389,271.67,88.389,271.298,88.545z"/>
			<path fill-rule="evenodd" clip-rule="evenodd" fill="#F2F2F2" d="M346.899,95.049c-0.99,0.024-1.539,0.085-2.382,0.121
				c-2.2-0.132-6.848,0.15-8.58-0.08c6.715-0.05,11.846-0.052,18.113-0.041c-0.514,0.078-2.279,0.099-3.927,0.091
				c-0.823-0.012-1.616-0.024-2.213-0.032C347.315,95.091,346.921,95.071,346.899,95.049z"/>
			<path fill-rule="evenodd" clip-rule="evenodd" fill="#F2F2F2" d="M358.813,95.17c-1.706-0.01-1.744,0.121-3.334,0.121
				c0.632-0.135,2.786-0.141,3.334-0.282C360.043,95.019,358.161,95.079,358.813,95.17z"/>
			<path fill-rule="evenodd" clip-rule="evenodd" fill="#F2F2F2" d="M254.61,82.66c-2.325,0.206-8.36,0.099-11.437,0.242
				C246.268,82.677,250.979,82.783,254.61,82.66z"/>
		</g>
	</g>
</g>
<g>
	<path fill="#F2F2F2" d="M51.8,15.3c0.9,0.1,1.7,0.3,2.6,0.4c3.6,0.5,7,1.4,10.3,3c9.8,4.5,16.7,11.8,20.6,21.8
		c1.2,2.9,1.9,6,2.2,9.1C88.7,60.5,86,70.4,79,79c-5.2,6.6-12.2,11-20.5,13.2c-3.8,1-7.6,1.4-11.5,1.2c-7.9-0.4-15.1-2.9-21.4-7.7
		c-6.9-5.2-11.6-12-14.2-20.2c-0.8-2.7-1.3-5.5-1.5-8.3c0-0.1,0-0.3-0.1-0.3c0-1.6,0-3.3,0-4.9c0.2-0.1,0.1-0.2,0.1-0.3
		c0.2-2.3,0.5-4.7,1.1-6.9c1.7-6.5,4.8-12.2,9.4-17c3.9-4.1,8.5-7.3,13.7-9.4c2.9-1.2,6-2,9.1-2.5c0.8-0.1,1.7-0.1,2.5-0.4
		C47.8,15.3,49.8,15.3,51.8,15.3z M12.4,54c0.1,20,16,36.1,35.9,36.6C68.3,91,85,74.9,85.5,54.9C85.9,35,70,17.8,49.3,17.6
		C29.7,17.4,12.7,32.9,12.4,54z"/>
	<g>
		<g>
			<path fill-rule="evenodd" clip-rule="evenodd" fill="#F2F2F2" d="M12.51,53.989c-0.012,0.056-0.005-0.092-0.007-0.133
				c0.016-0.195,0.034-0.422,0.043-0.4L12.51,53.989z"/>
			<path fill-rule="evenodd" clip-rule="evenodd" fill="#F2F2F2" d="M17.633,38.397c0.331-0.515,0.389-0.506,0.687-0.941
				c0.284-0.387,0.195-0.364,0.325-0.549c1.821-2.217,3.681-4.179,5.378-5.713c-0.007,0.073,0.175-0.08,0.33-0.202
				c0.065,0.093-0.029,0.267-0.208,0.482c-0.267,0.221-0.53,0.439-0.79,0.655c-0.241,0.238-0.48,0.473-0.716,0.706
				c-0.482,0.473-0.956,0.939-1.43,1.403c-0.896,0.976-1.738,2.01-2.566,3.107C18.622,37.068,17.702,38.533,17.633,38.397z"/>
			<path fill-rule="evenodd" clip-rule="evenodd" fill="#F2F2F2" d="M40.861,23.64c0.187,0.041,0.601-0.054,0.617,0.09
				C41.148,23.775,40.942,23.745,40.861,23.64z"/>
			<path fill-rule="evenodd" clip-rule="evenodd" fill="#F2F2F2" d="M41.268,13.31c0.591-0.17,1.864-0.402,2.112-0.273
				c0.824-0.261,1.613-0.619,2.999-0.664c0.126,0.072,0.264,0.141,0.32,0.237c-0.38,0.104-0.888,0.229-1.439,0.344
				c-0.548,0.16-1.137,0.325-1.691,0.442C42.462,13.636,41.492,13.708,41.268,13.31z"/>
			<path fill-rule="evenodd" clip-rule="evenodd" fill="#F2F2F2" d="M65.146,25.389c-0.44-0.259,0.436,0.095,0.061-0.108
				c0.126-0.045,0.602,0.338,0.478,0.379C65.522,25.592,65.179,25.29,65.146,25.389z"/>
			<path fill-rule="evenodd" clip-rule="evenodd" fill="#F2F2F2" d="M75.494,34.676c0.056-0.083,0.153-0.057,0.339,0.204
				C75.776,34.961,75.678,34.935,75.494,34.676z"/>
			<path fill-rule="evenodd" clip-rule="evenodd" fill="#F2F2F2" d="M83.977,53.141c-0.017,0.762,0.127,0.673,0.053,1.154
				c0.142,0.694,0.04,1.498,0.036,2.308c-0.053,0.807-0.015,1.629-0.123,2.329c-0.061,0.662-0.128,1.381-0.192,2.072
				c-0.046,0.357-0.071,0.725-0.142,1.087c-0.085,0.361-0.17,0.723-0.256,1.087c-0.182,0.733-0.365,1.473-0.548,2.214
				c-0.264,0.718-0.528,1.436-0.789,2.147c-0.132,0.355-0.263,0.709-0.393,1.059c-0.152,0.34-0.324,0.668-0.481,0.998
				c-0.374,0.755-0.74,1.53-1.125,2.258c-0.439,0.697-0.868,1.363-1.265,1.955c0.231-0.563,0.796-1.42,1.33-2.397
				c0.49-1.002,1.059-2.064,1.458-2.929c0.121-0.357,0.205-0.645,0.265-0.879c0.421-1.166,0.872-2.229,1.072-3.312
				c0.12-0.531,0.238-1.05,0.353-1.561c0.056-0.254,0.111-0.505,0.166-0.755c0.04-0.252,0.06-0.507,0.091-0.757
				c0.113-1.005,0.222-1.97,0.332-2.94c0.026-0.979,0.072-1.953,0.164-2.96c-0.019-0.688-0.095-1.282-0.2-2.045
				c0-0.113-0.001-0.227,0.023-0.255C83.822,52.836,83.92,53.042,83.977,53.141z"/>
			<path fill-rule="evenodd" clip-rule="evenodd" fill="#F2F2F2" d="M81.102,70.31c-0.18,0.4-0.59,1.235-0.625,1.163
				c-0.172,0.475-0.541,0.904-0.877,1.473c-0.992,1.558-2.307,3.285-3.831,4.982c-0.4,0.408-0.804,0.821-1.212,1.237
				c-0.409,0.415-0.809,0.845-1.278,1.203l-1.364,1.118c-0.451,0.375-0.906,0.741-1.407,1.038c-0.187,0.041,0.201-0.217,0.38-0.364
				c0.748-0.537,1.333-1.086,1.937-1.596c0.303-0.263,0.599-0.521,0.902-0.784c0.282-0.281,0.568-0.564,0.899-0.893
				c0.385-0.422,0.794-0.85,1.216-1.28c0.424-0.428,0.779-0.928,1.178-1.387c0.385-0.464,0.775-0.934,1.151-1.387
				c0.351-0.471,0.653-0.957,0.953-1.408c0.247-0.338,0.585-0.833,0.954-1.396c0.349-0.574,0.661-1.255,0.981-1.889
				C81.134,70.025,81.138,70.173,81.102,70.31z"/>
			<path fill-rule="evenodd" clip-rule="evenodd" fill="#F2F2F2" d="M73.353,80.596l0.027,0.03c-0.856,0.742-1.675,1.475-2.544,2.11
				c0.126-0.15,0.652-0.547,0.869-0.815C72.351,81.401,72.829,80.973,73.353,80.596z"/>
			<path fill-rule="evenodd" clip-rule="evenodd" fill="#F2F2F2" d="M70.155,82.706c0.124,0.006-0.934,0.688-1.177,0.826
				C69.323,83.242,69.739,83.02,70.155,82.706z"/>
			<path fill-rule="evenodd" clip-rule="evenodd" fill="#F2F2F2" d="M45.316,88.285c-0.174,0.138-1.021,0.287-1.525-0.033
				c-0.622,0.01-1.295-0.076-2.013-0.185c-0.718-0.112-1.452-0.373-2.256-0.524c0.156-0.11-0.629-0.304-0.84-0.306
				c0.015,0.131,0.505,0.037,0.348,0.17c-1.055-0.169-1.982-0.671-2.694-0.806c-0.013-0.067,0.136-0.016,0.158-0.056
				c-0.003-0.046-0.206-0.109-0.344-0.167c0.067-0.051,1.063,0.339,0.584,0.257c0.213,0.085,0.267,0.053,0.491,0.146
				c-0.428-0.215,0.213-0.139-0.533-0.392c0.045-0.039,0.358,0.121,0.381,0.066c0.197,0.109,0.174,0.201,0.295,0.303
				c0.195,0.026,0.633,0.22,1.005,0.303c0.372,0.085,0.655,0.134,0.497,0.002c0.53,0.023,1.534,0.695,2.064,0.611
				c0.746,0.275,1.374,0.259,2.028,0.348C43.625,88.066,44.325,88.198,45.316,88.285z"/>
			<path fill-rule="evenodd" clip-rule="evenodd" fill="#F2F2F2" d="M35.856,86.422c-0.234-0.115-0.448-0.28-0.172-0.254
				C35.944,86.269,35.907,86.346,35.856,86.422z"/>
			<path fill-rule="evenodd" clip-rule="evenodd" fill="#F2F2F2" d="M34.971,86.209c-0.378-0.144-0.268-0.231-0.538-0.368
				C34.641,85.838,35.06,86.16,34.971,86.209z"/>
			<path fill-rule="evenodd" clip-rule="evenodd" fill="#F2F2F2" d="M33.455,85.218c-0.11,0.092-0.651-0.321-1.074-0.429
				C32.476,84.707,33.075,85.053,33.455,85.218z"/>
			<path fill-rule="evenodd" clip-rule="evenodd" fill="#F2F2F2" d="M31.697,84.44c-0.215-0.062-0.345-0.04-0.732-0.276
				C31.123,84.169,31.363,84.258,31.697,84.44z"/>
			<path fill-rule="evenodd" clip-rule="evenodd" fill="#F2F2F2" d="M21.581,75.373c-0.264-0.316-0.404-0.529-0.42-0.64
				C21.278,74.925,21.616,75.297,21.581,75.373z"/>
			<path fill-rule="evenodd" clip-rule="evenodd" fill="#F2F2F2" d="M40.061,93.149c1.22,0.339,2.562,0.62,3.758,0.645
				c1.346,0.195,2.862,0.287,4.374,0.377c1.519-0.079,3.048-0.176,4.397-0.464c0.962-0.078,2.032-0.411,3.01-0.567
				c4.658-0.933,8.997-3.45,12.546-6.13l0.812-0.547c0.56-0.378,1.05-0.845,1.566-1.302c0.517-0.456,1.048-0.92,1.626-1.395
				c0.572-0.517,1.138-1.095,1.742-1.654c0.302-0.281,0.606-0.564,0.913-0.85c0.303-0.289,0.572-0.618,0.863-0.924
				c0.573-0.617,1.151-1.24,1.723-1.855c0.518-0.656,1.029-1.305,1.522-1.93c0.024,0.001,0.023,0.039,0.198-0.195
				c0.514-0.587,0.925-1.236,1.362-1.867c0.429-0.635,0.884-1.254,1.304-1.903c0.388-0.684,0.773-1.363,1.157-2.04l0.589-1.05
				c0.164-0.373,0.328-0.746,0.495-1.125c0.322-0.744,0.587-1.458,0.951-2.167c0.267-0.893,0.553-1.851,0.837-2.801
				c0.377-0.887,0.59-2.115,0.87-3.291c0.306-1.174,0.385-2.344,0.414-3.142c0.206-1.1,0.293-2.088,0.276-3.221
				c0.02-0.789,0.04-1.609,0.062-2.453c-0.011-0.844-0.109-1.707-0.164-2.593c-0.034-0.444-0.069-0.891-0.104-1.342
				c-0.043-0.45-0.146-0.893-0.217-1.345c-0.165-0.9-0.317-1.816-0.505-2.726c-0.911-3.6-2.328-7.113-4.023-9.939
				c-0.371-0.473-0.597-0.859-1.036-1.387c-0.223-0.408-0.521-0.89-0.863-1.405c-0.174-0.256-0.355-0.52-0.54-0.792
				c-0.201-0.258-0.426-0.507-0.644-0.76c-0.441-0.504-0.891-1-1.314-1.451c-0.211-0.222-0.416-0.437-0.609-0.64
				c-0.206-0.187-0.408-0.352-0.587-0.503c-0.311-0.441-0.811-0.959-1.368-1.515c-0.283-0.273-0.562-0.576-0.872-0.847
				c-0.315-0.265-0.628-0.536-0.923-0.811c-0.931-0.842-1.641-1.82-2.568-2.146c-1.167-0.812-2.361-1.68-3.728-2.329
				c-0.666-0.358-1.337-0.72-2.026-1.091c-0.693-0.352-1.419-0.662-2.134-1.039c-0.584-0.295-1.162-0.629-1.764-0.926
				c-0.614-0.26-1.24-0.522-1.887-0.759c-1.787-0.512-3.512-0.815-5.397-1.03c-0.029,0.047,0.01,0.126-0.163,0.105
				c-1.088-0.235-2.856,0.084-4.275-0.157c-2.313,0.336-4.265,0.874-7.928,1.426c-0.676,0.349-1.768,0.735-2.937,1.072
				c-0.292,0.086-0.588,0.173-0.882,0.259c-0.286,0.112-0.571,0.223-0.851,0.332c-0.556,0.223-1.082,0.444-1.532,0.659
				c-0.363,0.122-0.78,0.262-1.222,0.41c-0.424,0.184-0.871,0.378-1.314,0.571c-0.877,0.377-1.727,0.694-2.276,0.846
				c-0.852,0.496-1.65,0.945-2.679,1.66c-0.333,0.166-0.51,0.191-0.88,0.483c-0.126,0.173-0.336,0.385-0.612,0.628
				c-0.879,0.577-1.991,1.387-2.958,2.44c-0.502,0.504-0.994,1.032-1.468,1.544c-0.44,0.548-0.841,1.101-1.209,1.605
				c-0.247,0.158-0.573,0.758-0.842,0.947c-2.36,3.483-4.278,7.531-5.708,11.388c-0.321,0.598-0.704,1.677-0.882,1.862
				c-0.134,0.32-0.253,0.904-0.303,1.053c-0.012-0.073-0.067,0.183-0.098,0.256c-0.141,0.655-0.333,1.541-0.511,2.365
				c-0.203,0.887-0.228,1.823-0.309,2.486c-0.027,0.668-0.087,1.471,0.103,0.429c0.089,0.161,0.429-1.457,0.018,1.77
				c0.015,0.511,0.007,1.072,0.079,0.815c0.035-0.33,0.073-0.684,0.111-1.048c0.087-0.435,0.173-0.866,0.266-1.329
				c-0.032,0.248,0.01,0.017,0.025,0.004c0.098-0.555,0.233-1.394,0.268-1.445c-0.245,1.392-0.236,1.582-0.412,2.637
				c-0.066,1.185,0.054,0.741,0.019,1.606c-0.028,0.365-0.031,0.395-0.062,0.795c0.012,0.226,0.056-0.274,0.026,0.401
				c0.034-0.237,0.056-0.578,0.095-1.058c0.076-0.39,0.163-1.75,0.468-2.875c0.175-0.826,0.335-1.585,0.491-2.322
				c0.224-0.703,0.459-1.355,0.684-1.991c0.245-0.629,0.413-1.264,0.722-1.862c0.296-0.611,0.588-1.212,0.904-1.862
				c0.108-0.044,0.525-1.005,0.836-1.471c0.156-0.188,0.137-0.036,0.382-0.39c0.164-0.316-0.111,0.075-0.15,0.071
				c0.235-0.415,0.812-1.354,1.044-1.631c0.389-0.773,1.523-1.998,2.107-2.897c0.298-0.293,0.813-0.669,1.438-1.296
				c-0.048-0.057,0.052-0.221,0.133-0.373c0.409-0.444,0.753-0.852,1.137-1.174c0.388-0.304,0.757-0.592,1.126-0.881
				c0.367-0.279,0.729-0.556,1.1-0.864c0.368-0.311,0.815-0.581,1.253-0.95c0.288-0.147,0.628-0.358,1-0.602
				c0.366-0.251,0.769-0.527,1.219-0.759c2.358-1.047,5.686-2.416,8.385-3.713c0.954,0.176,2.11-0.507,3.146-0.643
				c0.797-0.064,1.652-0.132,2.457-0.197c0.814-0.056,1.63-0.057,2.431-0.285c0.189-0.022,0.05-0.124,0.215-0.152
				c0.601-0.08,1.304-0.089,2.025-0.126c0.721-0.024,1.462-0.125,2.15-0.08c0.984,0.079,1.912,0.309,2.896,0.285
				c1.132,0.077,2,0.053,2.754-0.219c0.222,0.039,0.457,0.046,0.701,0.04c0.231,0.014,0.485,0.028,0.729,0.043
				c0.49,0.031,0.984,0.088,1.398,0.316c0.187-0.005,0.186-0.137,0.512-0.047c0.232,0.046,0.214,0.114,0.323,0.17
				c0.038-0.155-0.094-0.149,0.078-0.245c-0.677-0.089-0.984-0.184-1.571-0.182c-0.153-0.054-0.206-0.117-0.452-0.163
				c-0.33-0.018-0.674-0.036-1.027-0.054c-0.364,0.011-0.737,0.022-1.115,0.034c-0.765,0.024-1.561-0.03-2.409-0.043
				c-1.637,0.065-3.325-0.334-4.446,0.034c-0.267-0.01-0.161-0.168-0.359-0.207c-0.599,0.18-1.157-0.075-1.876,0.067
				c-0.505,0.097-0.907,0.35-1.479,0.423c-0.578,0.091-1.07,0.047-1.567,0.121c-0.499,0.06-1.026,0.12-1.698,0.253
				c-0.309-0.072-0.793-0.016-1.21,0.059c-0.409,0.102-0.763,0.186-0.845,0.073c0.217-0.198,0.846-0.119,1.144-0.325
				c-0.247-0.005-0.513,0.056-0.623-0.006c1.106-0.568,1.441-1.14,2.958-1.666c1.316-0.176,2.259-0.341,3.025-0.606
				c1.072-0.068,2.258,0.022,3.485-0.027c1.229,0.026,2.509,0.168,3.793,0.202c1.268,0.17,2.537,0.34,3.762,0.504
				c1.194,0.281,2.367,0.464,3.412,0.716c0.947,0.495,1.776,0.788,3.007,1.174c0.549,0.586,1.698,1.076,2.854,1.573
				c1.098,0.593,2.221,1.165,2.729,1.657c0.744,0.052,2.3,1.462,2.688,2.011c0.361-0.035,1.036,0.726,1.435,1.204
				c-0.038,0.041-0.473-0.266-0.08,0.083c0.174,0.173,0.219,0.129,0.331,0.196c0.109,0.212,0.284,0.453,0.273,0.606
				c0.329,0.32,0.428,0.325,0.721,0.682c-0.139-0.042-0.262-0.049-0.47-0.237c-0.514-0.423-0.508-0.56-0.739-0.833
				c-0.055,0.079,0.092,0.243-0.199,0.027c0.042-0.283-0.629-0.486-0.719-0.856c0.174,0.15,0.323,0.258,0.42,0.276
				c-0.381-0.295-0.836-0.648-1.177-0.912c0.098,0.087,0.22,0.225,0.065,0.112c3.042,3.095,5.605,5.909,7.875,9.609
				c0.066,0.23,0.261,0.64,0.418,1.037c0.643,1.073,1.057,1.867,1.528,2.049c-0.355-0.669-0.674-1.271-1.046-1.973
				c-0.336-0.716-0.845-1.468-1.482-2.496c-0.184-0.472-0.28-0.872-0.163-1.075c0.563,0.803,1.079,1.684,1.576,2.558
				c0.415,0.917,0.83,1.819,1.301,2.64c0.136,0.235,0.232,0.315,0.32,0.555c0.57,1.466,0.827,2.218,1.128,3.241
				c0.244,1.005,0.544,2.037,0.836,3.077c0.188,1.061,0.376,2.118,0.558,3.15c0.075,0.455-0.034,0.914,0.113,1.403
				c0.025-1.136-0.232-2.37-0.415-3.172c-0.045-1.181-0.619-3.127-0.979-4.489c-0.343-1.355-0.777-2.51-1.261-3.711
				c-0.288-0.582-0.584-1.182-0.903-1.826c-0.153-0.324-0.311-0.659-0.477-1.01c-0.191-0.335-0.391-0.685-0.602-1.056
				c0.071-0.237-0.174-0.572-0.446-1.071c0.201-0.073,0.051-0.484-0.257-1.05c-0.255-0.262,0.01,0.259-0.225-0.009
				c-0.166-0.331-0.312-0.65-0.221-0.782c0.202,0.278,0.45,0.589,0.505,0.752c0.074-0.189-0.41-0.821-0.238-0.934l0.598,0.757
				l0.527,0.78c0.353,0.515,0.703,1.026,1.048,1.53c0.694,1.018,1.179,2.15,1.706,3.326c0.071,0.341,0.007,0.55,0.075,0.959
				c0.211,0.215-0.015-0.714,0.041-0.863c0.396,0.674,0.757,1.82,1.104,2.419c0.008,0.162-0.092,0.15,0.059,0.538
				c0.616,2.399,1.185,3.994,1.443,5.933c0.098,0.733,0.269,1.443,0.271,2.164c0.021,0.718,0.042,1.433,0.064,2.159
				c0.009,0.363,0.019,0.728,0.028,1.098c-0.026,0.369-0.053,0.742-0.08,1.122c-0.045,0.756-0.091,1.534-0.14,2.369
				c-0.037,0.209-0.071-0.04-0.127,0.386c-0.175,0.975-0.384,2.139-0.577,3.216c-0.282,1.047-0.602,1.969-0.843,2.455
				c-0.213,0.807-0.295,1.005-0.52,1.502c-0.084,0.244-0.164,0.477-0.258,0.752c-0.153,0.251-0.44,1.097-0.692,1.724
				c-0.276,0.7-0.652,1.183-0.997,1.872c-0.626,1.186-0.831,1.706-1.161,2.23c-0.38,0.661-0.981,1.626-1.18,2.083
				c0.135-0.175,0.268-0.346,0.408-0.527c0.408-0.772,0.935-1.619,1.474-2.679c0.339-0.667,0.622-1.051,0.944-1.755l0.035,0.017
				c0.487-0.9,0.755-1.748,1.089-2.494c0.296-0.76,0.679-1.419,0.885-2.137c0.466-1.414,1.055-2.799,1.317-4.784l0.401-1.446
				c0.133-0.459,0.193-0.903,0.3-1.305c-0.109,1.406-0.18,1.871-0.431,3.211c-0.419,3.435-2.147,7.875-4.071,11.26
				c-0.766,1.23-1.5,2.362-2.235,3.481c-0.404,0.532-0.811,1.067-1.221,1.608c-0.41,0.542-0.814,1.105-1.319,1.611
				c-0.331,0.25-1.238,1.246-1.898,1.925c-0.195,0.195,0.019,0.075-0.364,0.402c-1.538,1.334-1.745,1.329-2.936,2.162
				c-0.217,0.146-0.576,0.441-0.86,0.647c-0.405,0.284-1.21,0.849-1.539,1.08c-0.625,0.383-1.216,0.776-1.823,1.18
				c-0.605,0.408-1.224,0.832-1.963,1.154c-2.053,1.039-4.494,2.012-6.945,2.624c-1.026,0.148-2.268,0.554-3.638,0.703
				c-0.681,0.099-1.377,0.201-2.07,0.301c-0.693,0.084-1.39,0.047-2.05,0.039c-0.512,0.074-1.107,0.119-1.739,0.151
				c-0.632,0.024-1.3-0.068-1.964-0.101c-0.664-0.045-1.325-0.086-1.944-0.099c-0.614-0.051-1.183-0.104-1.679-0.078
				c-0.356-0.05-0.083-0.155-0.519-0.198c-0.593-0.02-1.224-0.074-1.792-0.172c-0.566-0.113-1.086-0.2-1.497-0.158
				c-0.311-0.074-0.507-0.147-0.653-0.219c-3.572-0.692-7.491-1.772-11.3-4.796c-0.485-0.598-0.973-1.2-1.459-1.8l-0.731-0.878
				l-0.712-0.962c-0.363-0.586-0.694-1.136-1.127-1.734c-0.436-0.596-0.879-1.331-1.592-2.172c-0.893-0.8-1.551-1.577-2.179-2.21
				c-0.618-0.64-1.171-1.165-1.542-1.686c-0.467-0.767-0.73-1.025-0.891-1.2c-0.263-0.454-0.543-0.872-0.756-1.312
				c-0.207-0.448-0.408-0.882-0.608-1.314c-0.393-0.875-0.829-1.739-1.131-2.774c-1.398-4.077-1.68-6.699-2.062-10.806
				c-0.005-0.175-0.01-0.335-0.016-0.537c-0.038-0.25-0.069-1.644-0.121-1.874c0.012,0.698,0.078,2.228,0.14,3.487
				c-0.008,0.426,0.146,1.162,0.228,1.867c0.134,0.88,0.147,1.673,0.311,2.405c0.051,0.213,0.107,0.444,0.126,0.524
				c0.113,0.556,0.236,1.165,0.376,1.856c0.161,0.88,0.388,1.42,0.551,1.955c0.173,0.527,0.343,1.045,0.592,1.802
				c0.25,0.772,0.626,1.495,0.926,2.217c0.326,0.709,0.589,1.417,0.963,1.99c0.695,1.173,1.292,2.092,1.721,2.456
				c0.685,1.001,1.12,1.144,1.777,1.879c0.804,1.093,0.739,0.786,1.587,1.817c0.345,0.585,0.642,1.152,0.927,1.723
				c0.324,0.547,0.651,1.097,0.973,1.64c0.343,0.561,0.681,1.186,1.138,1.798c0.468,0.598,1.003,1.247,1.651,1.958
				c0.677,0.588,1.414,1.029,1.764,1.445c-0.444-0.243-0.951-0.506-1.442-0.872c-0.485-0.375-0.997-0.791-1.523-1.239
				c-1.09-0.85-2.075-2.01-3.094-3.12c-0.53-0.536-0.958-1.171-1.41-1.762c-0.446-0.591-0.884-1.172-1.31-1.736
				c-0.748-1.198-1.476-2.271-2.061-3.18c0.143,0.473,0.52,0.963,0.816,1.472c1.582,2.826,3.807,5.733,6.74,8.4
				c1.75,1.592,3.727,2.643,5.955,3.991c1.329,0.745,2.302,1.49,3.96,2.084c0.036,0.076,0.41,0.199,0.217,0.243
				c1.895,0.767,3.429,1.755,5.345,1.945C40.14,93.097,39.793,93.002,40.061,93.149z M12.798,48.515
				c0.027-0.166,0.031-0.132,0.01,0.002c0.009-0.02,0.042-0.24,0.068-0.396c0.005,0.037-0.073,0.493-0.069,0.532
				c0.05-0.269,0.098-0.525,0.148-0.791C12.857,48.606,12.725,49.085,12.798,48.515z M15.273,40.342
				c0.142-0.075-0.532,1.638-0.692,2.018c-0.186,0.376-0.399,1.045-0.303,0.601C14.399,42.472,15.031,41.09,15.273,40.342z
				 M16.72,36.891c-0.048,0.023-0.039-0.045-0.004-0.155c0.096-0.159,0.213-0.373,0.339-0.611c0.15-0.23,0.31-0.473,0.468-0.715
				c0.318-0.483,0.629-0.94,0.829-1.126c-0.347,0.516-0.58,0.862-0.825,1.227C17.278,35.863,17.028,36.237,16.72,36.891z
				 M19.167,33.387c-0.1,0.048,0.117-0.24,0.094-0.26c0.141-0.115,0.396-0.426,0.493-0.461
				C19.484,33.037,19.403,33.041,19.167,33.387z M19.025,32.797c0.978-1.169,2.006-2.53,3.238-3.773
				c0.518-0.545,0.942-1.164,1.435-1.666c0.49-0.505,0.96-0.983,1.443-1.358c-0.443,0.519-1.061,1.126-1.649,1.718
				c-0.536,0.646-1.048,1.27-1.358,1.737c-0.992,0.871-1.971,2.118-2.525,2.937C19.469,32.423,19.079,32.912,19.025,32.797z
				 M20.004,32.354l-0.05-0.037c0.33-0.443,0.922-1.253,1.045-1.206C20.628,31.655,20.454,31.839,20.004,32.354z M21.134,31.051
				c0.049-0.094,0.05-0.144,0.013-0.162C21.503,30.422,21.529,30.614,21.134,31.051z M21.569,31.241
				c0.157-0.083,0.426-0.476,0.645-0.65c0.404-0.354,0.714-0.504,1.049-0.802c0.635-0.529,0.698-0.921,1.55-1.565
				c0.259-0.21,0.092-0.208,0.209-0.349c3.62-3.283,7.567-5.839,13.059-7.192c-0.091,0.46-1.699,0.818-1.296,1.306
				c-0.709,0.23-1.33,0.552-1.95,0.799c-0.62,0.251-1.212,0.491-1.788,0.724c-1.09,0.59-2.159,1.12-3.133,1.89
				c-0.724,0.467-1.413,0.857-2.142,1.27c-0.738,0.402-1.407,0.962-2.243,1.569c-0.881,0.608-1.623,1.361-2.319,1.91
				C22.524,30.709,21.915,31.101,21.569,31.241z M29.05,26.147c0.345-0.225,0.369-0.109,0.61-0.224
				c0.677-0.471,1.082-0.546,1.601-0.737c0.609-0.249,1.453-0.761,2.291-1.173c0.864-0.361,1.684-0.692,2.155-0.713
				c-0.756,0.22-1.047,0.742-1.861,0.947c-0.423,0.407-0.829,0.853-1.462,1.23c-0.621,0.399-1.473,0.732-2.566,1.328
				c-0.477,0.234-1.041,0.39-1.524,0.626c-0.888,0.455-1.59,1.179-2.124,1.332c0.004-0.241,0.567-0.739,1.193-1.269
				C27.998,26.973,28.77,26.522,29.05,26.147z M25.424,25.707c0.182-0.263,0.359-0.386,0.786-0.75
				C26.252,25.086,25.67,25.482,25.424,25.707z M43.528,17.195l1.353-0.225c0.449-0.092,0.902-0.156,1.364-0.176
				c0.922-0.07,1.869-0.128,2.87-0.131c0.928,0.05,1.635,0.207,2.401,0.317c0.765,0.132,1.594,0.177,2.746,0.386
				c0.677,0.098,1.142,0.013,2.192,0.145c1.176,0.156,2.203,0.701,3.097,0.614c1.276,0.371,2.383,1.051,3.514,1.196
				c-0.455,0.201-2.04-0.16-3.108-0.194c-2.757-0.849-5.562-1.404-8.32-1.584c-0.688-0.057-1.372-0.114-2.055-0.171
				c-0.681-0.051-1.359-0.014-2.033-0.039c-0.666-0.021-1.334-0.042-2.014-0.063c-0.664,0.03-1.326,0.047-1.988,0.05L43.528,17.195z
				 M69.759,22.829c0.057-0.032,0.352,0.212,0.391,0.157c1.084,0.898,2.034,1.506,2.889,2.129c0.412,0.291,0.7,0.729,1.153,1.193
				c0.608,0.61,1.574,1.252,1.627,1.68c0.679,0.461,1.466,1.732,2.185,2.287c-0.17,0.081-1.161-0.846-0.754-0.083
				c0.292,0.225,0.423,0.11,0.7,0.305c0.586,0.629,0.8,1.18,0.708,1.352c-0.404-0.411-1.197-1.213-1.983-2.071
				c-0.383-0.44-0.768-0.883-1.124-1.292c-0.378-0.383-0.707-0.739-0.941-1.026c-0.406-0.301-0.737-0.611-1.055-0.942
				c-0.308-0.342-0.631-0.673-1.025-1.005c-0.104,0.025,0.104,0.178,0.269,0.312c-0.553-0.319-0.99-0.799-1.434-1.306
				c-0.446-0.501-0.878-1.06-1.49-1.374C69.69,22.997,69.992,22.993,69.759,22.829z M79.04,32.075
				c0.147,0.246,0.193,0.407,0.305,0.622c-0.12,0.011-0.299-0.139-0.539-0.451C78.648,31.892,78.841,31.974,79.04,32.075z
				 M83.982,37.546c0.38,0.95,0.859,1.87,1.173,2.845c0.313,0.974,0.623,1.941,0.923,2.876c0.187,0.678,0.299,1.434,0.451,2.204
				c0.119,0.777,0.337,1.562,0.366,2.379c0.115,1.623,0.333,3.225,0.301,4.639c-0.04,0.528-0.092,1.379-0.114,2.195
				c-0.054,0.816-0.169,1.595-0.138,1.997c-0.23,2.121-0.671,4.153-1.074,6.024c-0.457,1.221-0.793,2.538-1.308,3.83
				c-0.273,0.642-0.549,1.289-0.827,1.942c-0.141,0.324-0.283,0.649-0.427,0.978c-0.173,0.307-0.347,0.618-0.527,0.937
				c-0.29,0.484-0.623,1.039-0.92,1.536c-0.258,0.511-0.628,1.104-1,1.638c-0.538,0.767-1.043,1.513-1.589,2.231
				c-0.261,0.336-0.581,0.746-0.84,1.078c-0.17,0.209-0.3,0.322-0.456,0.509c-0.256,0.321-0.504,0.633-0.752,0.945
				c-0.274,0.299-0.547,0.58-0.776,0.798c-1.463,1.703-2.932,3.113-4.996,4.86l0.682-0.606l0.582-0.627
				c0.354-0.39,0.622-0.713,0.699-0.891c0.488-0.465,1.005-0.87,1.436-1.357c0.442-0.473,0.877-0.938,1.338-1.43
				c0.33-0.341,0.558-0.577,0.831-0.859c0.247-0.318,0.534-0.687,1.017-1.306c0.411-0.553,0.832-1.119,1.213-1.631
				c0.932-1.487,2.014-2.948,2.752-4.512c0.325-0.66,0.708-1.293,0.955-1.941c0.259-0.643,0.508-1.244,0.759-1.756
				c0.486-1.085,0.845-2.361,1.234-3.59c0.44-1.217,0.598-2.463,0.744-3.477c0.102-0.41,0.196-0.828,0.284-1.247
				c0.057-0.423,0.087-0.85,0.124-1.268c0.068-0.837,0.135-1.655,0.192-2.362c0.144-0.668,0.229-1.466,0.327-2.409
				c0.044-0.472,0.081-0.98,0.103-1.525c-0.012-0.542-0.075-1.119-0.148-1.732c-0.14-0.99-0.288-1.773-0.572-2.463
				c-0.279-0.692-0.565-1.317-0.796-2.047c-0.031-0.422-0.117-0.774-0.217-1.127c-0.134-0.344-0.284-0.689-0.412-1.114
				c-0.192-0.641-0.354-1.342-0.556-2.114c-0.219-0.765-0.577-1.562-1.013-2.435c0.421,0.102,0.656-0.01,1.058,0.281
				C84.09,38.216,83.843,37.616,83.982,37.546z M70.693,84.578c-0.013,0.057-0.138,0.183-0.044,0.175
				c-0.612,0.384-1.208,1.041-1.721,1.398c-0.859,0.575-1.605,1.105-2.355,1.637c-0.772,0.489-1.572,0.932-2.474,1.449
				c-0.394,0.181-0.666,0.283-1.037,0.428c-1.327,0.535-2.641,1.135-3.931,1.547c-0.7,0.223-1.416,0.451-2.126,0.677
				c-0.355,0.112-0.705,0.239-1.056,0.334c-0.357,0.074-0.705,0.145-1.045,0.215c-0.759,0.147-1.533,0.231-2.275,0.333
				c-0.741,0.111-1.461,0.101-2.109,0.279c-0.773,0.023-1.699,0.069-2.589,0.019c-0.89-0.076-1.75-0.137-2.414-0.111
				c-0.318-0.063-0.691-0.115-1.098-0.16c-0.411-0.076-0.843-0.157-1.289-0.24c-0.896-0.171-1.845-0.343-2.654-0.575
				c-1.586-0.378-2.945-0.508-4.28-0.902c-0.664-0.204-1.336-0.432-2.045-0.715c-0.351-0.148-0.724-0.283-1.087-0.485
				c-0.361-0.207-0.733-0.434-1.12-0.683c1.185,0.471,2.947,1.294,3.904,1.387c0.311,0.139,0.624,0.254,0.931,0.355
				c0.311,0.089,0.625,0.133,0.923,0.186c0.587,0.087,1.169,0.174,1.611,0.24c0.398,0.071,0.844,0.173,1.295,0.276
				c0.46,0.062,0.926,0.121,1.351,0.155c0.518,0.04,0.926,0.046,1.402,0.072c0.477,0.021,1.017,0.101,1.825,0.119
				c0.638,0.036,1.242,0.07,1.951,0.11c0.369,0.017,0.749,0.047,1.129,0.083c0.377,0,0.762,0,1.139,0
				c0.749,0.003,1.464,0.001,2.061-0.046c0.324-0.031,0.653-0.096,0.968-0.157c0.746-0.11,1.668-0.129,2.498-0.274
				c0.127-0.022,0.542-0.16,0.677-0.18c0.412-0.045,0.848-0.125,1.237-0.203c1.31-0.307,2.846-0.689,4.362-1.365
				c0.758-0.331,1.57-0.574,2.306-0.994c0.747-0.386,1.494-0.771,2.226-1.149c0.608-0.277,1.112-0.622,1.669-0.973
				c0.369-0.246,0.758-0.539,1.14-0.778C69.337,85.614,69.975,85.182,70.693,84.578z M39.547,92.787
				c-0.385-0.106-0.3-0.017-0.565-0.153C38.906,92.469,39.69,92.681,39.547,92.787z"/>
			<path fill-rule="evenodd" clip-rule="evenodd" fill="#F2F2F2" d="M61.798,23.723c-0.246-0.062-0.402-0.049-0.616-0.086
				c-0.476-0.316-1.671-0.448-2.005-0.82c0.807,0.258,1.512,0.513,2.207,0.755c0.345,0.126,0.696,0.233,1.038,0.379
				c0.334,0.163,0.675,0.329,1.032,0.504c-0.153,0.016-0.565-0.157-0.936-0.346C62.152,23.909,61.786,23.78,61.798,23.723z"/>
			<path fill-rule="evenodd" clip-rule="evenodd" fill="#F2F2F2" d="M64.488,25.081c-0.386-0.193-0.457-0.077-0.819-0.248
				c0.207-0.056,0.703,0.171,0.898,0.102C64.845,25.077,64.383,24.928,64.488,25.081z"/>
			<path fill-rule="evenodd" clip-rule="evenodd" fill="#F2F2F2" d="M36.585,86.31c-0.323-0.022-0.855-0.195-1.409-0.382
				c-0.544-0.21-1.087-0.487-1.49-0.601c0.418,0.089,0.897,0.294,1.39,0.507C35.589,86.004,36.112,86.193,36.585,86.31z"/>
		</g>
		<g>
			<path fill-rule="evenodd" clip-rule="evenodd" fill="#F2F2F2" d="M51.787,15.191c0.061,0.009-0.099,0.011-0.143,0.016
				c-0.21-0.004-0.453-0.007-0.43-0.017L51.787,15.191z"/>
			<path fill-rule="evenodd" clip-rule="evenodd" fill="#F2F2F2" d="M33.618,17.048c-0.671,0.211-0.714,0.161-1.302,0.34
				c-0.539,0.159-0.449,0.179-0.696,0.275c-3.175,1.013-6.158,2.474-8.453,4.088c0.029-0.08-0.215,0.079-0.423,0.206
				c-0.047-0.104,0.108-0.292,0.37-0.522c2.879-1.841,5.773-3.083,8.831-4.143C31.76,17.518,33.673,16.883,33.618,17.048z"/>
			<path fill-rule="evenodd" clip-rule="evenodd" fill="#F2F2F2" d="M7.315,39.911c-0.156,0.197-0.352,0.757-0.479,0.687
				C7.018,40.166,7.178,39.938,7.315,39.911z"/>
			<path fill-rule="evenodd" clip-rule="evenodd" fill="#F2F2F2" d="M15.965,45.622c-0.083,0.566-0.247,1.48-0.439,1.634
				c0.022,0.687,0.078,1.344-0.048,2.481c-0.09,0.09-0.177,0.192-0.281,0.222c-0.097-0.667-0.172-1.77-0.068-2.673
				C15.22,46.405,15.519,45.644,15.965,45.622z"/>
			<path fill-rule="evenodd" clip-rule="evenodd" fill="#F2F2F2" d="M10.282,72.347c-0.252-0.607,0.341,0.444,0.112-0.053
				c0.131,0.061,0.406,0.782,0.271,0.728C10.537,72.834,10.354,72.285,10.282,72.347z"/>
			<path fill-rule="evenodd" clip-rule="evenodd" fill="#F2F2F2" d="M21.119,86.656c0.028-0.099,0.147-0.082,0.458,0.181
				C21.549,86.937,21.431,86.921,21.119,86.656z"/>
			<path fill-rule="evenodd" clip-rule="evenodd" fill="#F2F2F2" d="M44.592,94.68c0.872,0.131,0.782-0.024,1.328,0.102
				c1.598-0.021,3.716-0.001,5.325-0.203c0.797-0.095,1.526-0.245,2.332-0.389c3.212-0.557,6.672-1.545,9.684-2.758
				c1.737-0.704,3.469-1.559,4.871-2.297c-1.059,0.833-4.043,2.181-6.056,2.88c-0.388,0.164-0.701,0.28-0.946,0.396
				c-2.631,0.897-4.963,1.537-7.227,1.962c-2.262,0.426-4.465,0.647-6.803,0.515c-0.799,0.043-1.483,0.003-2.38,0.005
				c-0.131-0.017-0.263-0.033-0.292-0.061C44.219,94.788,44.471,94.722,44.592,94.68z"/>
			<path fill-rule="evenodd" clip-rule="evenodd" fill="#F2F2F2" d="M63.825,90.888c0.44-0.192,1.363-0.615,1.341-0.543
				c0.483-0.259,1.055-0.473,1.693-0.821c1.83-0.867,3.889-2.085,5.915-3.582c2.019-1.508,3.993-3.298,5.769-5.174
				c0.186-0.095-0.173,0.281-0.334,0.485c-1.446,1.465-2.476,2.586-4.047,3.797c-1.925,1.67-4.469,3.17-6.588,4.274
				c-0.845,0.376-2.387,1.139-3.838,1.728C63.59,91.093,63.697,90.974,63.825,90.888z"/>
			<path fill-rule="evenodd" clip-rule="evenodd" fill="#F2F2F2" d="M75.677,83.256l-0.028-0.029
				c0.889-0.86,1.754-1.691,2.519-2.588c-0.094,0.196-0.578,0.734-0.796,1.037C76.715,82.304,76.239,82.826,75.677,83.256z"/>
			<path fill-rule="evenodd" clip-rule="evenodd" fill="#F2F2F2" d="M78.865,80.47c-0.13,0.03,0.817-0.999,1.021-1.233
				C79.612,79.657,79.219,80.012,78.865,80.47z"/>
			<path fill-rule="evenodd" clip-rule="evenodd" fill="#F2F2F2" d="M89.836,53.166c-0.134-0.189-0.45-1.132-0.27-1.781
				c-0.361-1.401-0.363-3.113-0.822-4.999c0.173,0.114-0.028-0.825-0.135-1.047c-0.107,0.086,0.216,0.552,0.022,0.457
				c-0.312-1.204-0.575-2.404-0.928-3.176c0.043-0.058,0.103,0.118,0.149,0.111c0.033-0.034-0.054-0.27-0.103-0.441
				c0.089,0.026,0.441,1.248,0.19,0.731c0.072,0.261,0.135,0.293,0.202,0.571c-0.104-0.557,0.252,0.121-0.038-0.777
				c0.06,0.018,0.141,0.43,0.199,0.417c0.042,0.266-0.047,0.302-0.052,0.486c0.207,0.421,0.537,2.202,0.603,1.725
				c0.251,0.589,0.106,1.994,0.397,2.539c0.097,0.942,0.194,1.629,0.311,2.4C89.692,51.145,89.798,51.982,89.836,53.166z"/>
			<path fill-rule="evenodd" clip-rule="evenodd" fill="#F2F2F2" d="M87.516,42.047c-0.073-0.297-0.098-0.616,0.072-0.342
				C87.691,42.02,87.608,42.04,87.516,42.047z"/>
			<path fill-rule="evenodd" clip-rule="evenodd" fill="#F2F2F2" d="M87.062,41.091c-0.188-0.432-0.053-0.408-0.176-0.735
				C87.058,40.519,87.175,41.13,87.062,41.091z"/>
			<path fill-rule="evenodd" clip-rule="evenodd" fill="#F2F2F2" d="M86.494,39.086c-0.149-0.008-0.318-0.772-0.602-1.183
				C86.029,37.902,86.287,38.657,86.494,39.086z"/>
			<path fill-rule="evenodd" clip-rule="evenodd" fill="#F2F2F2" d="M85.497,37.107c-0.163-0.201-0.291-0.268-0.517-0.736
				C85.119,36.479,85.289,36.719,85.497,37.107z"/>
			<path fill-rule="evenodd" clip-rule="evenodd" fill="#F2F2F2" d="M76.298,24.196c-0.376-0.306-0.586-0.518-0.638-0.634
				C75.842,23.751,76.313,24.111,76.298,24.196z"/>
			<path fill-rule="evenodd" clip-rule="evenodd" fill="#F2F2F2" d="M83.836,49.104c0.043,1.137,0.099,2.396,0.323,3.442
				c0.083,2.452-0.09,5.378-0.133,7.854c-0.183,0.842-0.189,1.849-0.389,2.724c-0.445,2.078-0.917,4.213-1.58,6.329
				c-0.661,2.114-1.522,4.193-2.565,6.132l-0.501,0.825c-0.71,1.141-1.381,2.304-2.312,3.485c-1.871,2.476-4.714,4.904-7.458,6.601
				c-0.022-0.009-0.007-0.045-0.257,0.115c-2.707,1.606-5.505,2.718-8.692,3.614c-0.772,0.235-1.506,0.438-2.28,0.575
				c-0.806,0.222-1.836,0.431-2.825,0.586c-1.873,0.234-4.866,0.298-6.416,0.32c-1.077-0.126-2.036-0.164-3.131-0.306
				c-3.024-0.433-6.433-1.339-9.607-2.743c-3.184-1.391-6.109-3.249-8.487-5.137c-0.507-0.248-0.792-0.565-1.33-0.911
				c-1.227-1.221-3.561-3.387-4.762-4.632c-0.496-0.864-1.581-2.117-2.293-3.404c-0.558-1.008-0.863-2.016-1.428-2.674
				c-0.571-1.148-1.143-2.337-1.669-3.591c-0.525-1.249-0.964-2.613-1.222-3.971c-0.174-1.089-0.235-2.297-0.333-3.467
				c-0.28-1.28-0.396-2.627-0.524-3.849l-0.005-0.025c-0.004,0.051,0.005-0.285-0.091-0.771c-0.071-0.283-0.114-0.64-0.521-1.36
				c-0.055-0.092-0.104-0.169-0.174-0.268c-0.083-0.118-0.173-0.232-0.269-0.341c-0.164-0.193-0.455-0.472-0.774-0.688
				c-0.289-0.204-0.73-0.426-1.131-0.544c-0.396-0.12-0.793-0.176-1.194-0.178l4.047,4.053c-0.008-0.161-0.015-0.325-0.023-0.491
				c-0.051-0.023-0.123,0.025-0.13-0.143c0.08-1.066-0.291-2.756-0.149-4.149L13.534,52l-2.063,3.34
				c0.235-0.132,0.462-0.243,0.889-0.618c0.086-0.077,0.2-0.189,0.323-0.33c0.111-0.129,0.219-0.265,0.346-0.463
				c0.224-0.343,0.441-0.845,0.527-1.31c0.095-0.486,0.083-0.879,0.048-1.188c-0.031-0.255-0.08-0.45-0.095-0.504
				c-0.009-0.033-0.017-0.059-0.011-0.03l0.002,0.01l0.001,0.005l0,0.003l-2.981,0.699l-0.189,0.044
				c-0.244,0.048-0.221,0.039-0.28,0.043l3.516,0.319c-0.116-1.97-0.451-3.855,0.395-6.814c-0.106-1.449,0.926-4.209,1.533-5.985
				c0.609-1.298,1.722-3.375,2.5-4.108c0.504-0.773,0.966-1.482,1.599-2.453c0.226-0.263,0.368-0.342,0.634-0.688
				c0.066-0.187,0.199-0.431,0.386-0.72c1.326-1.446,3.351-3.942,5.04-5.671c0.258-0.114,0.653-0.651,0.946-0.78
				c1.457-1.413,3.12-2.776,4.945-3.937c1.826-1.153,3.811-2.122,5.806-2.812c0.684-0.129,1.808-0.458,2.064-0.417
				c0.339-0.095,0.92-0.277,1.081-0.297c-0.059,0.044,0.199-0.026,0.28-0.033c0.598-0.161,1.506-0.388,2.402-0.587
				c0.82-0.168,1.92-0.237,2.684-0.588c-0.071-0.007,0.213-0.053,0.345-0.083c0.125-0.027,0.247-0.054,0.366-0.08
				c0.155-0.04,0.087-0.061-0.464-0.025c0.084-0.063-0.349-0.07-0.295-0.128c-0.039-0.033,0.407-0.158,2.119-0.263
				c0.534-0.07,1.131-0.109,0.851-0.159c-0.854,0.003-1.292-0.03-2.574,0.039c0.266-0.03,0.015-0.014-0.002-0.025
				c-0.155,0.013-0.326,0.027-0.498,0.041c-0.175,0.051-0.326,0.104-0.479,0.138c-0.299,0.068-0.54,0.093-0.571,0.084
				c0.372-0.048,0.657-0.117,0.888-0.196c0.251-0.094,0.467-0.069,0.652-0.102c0.382-0.039,0.718-0.071,1.292-0.1
				c1.273-0.089,0.783-0.142,1.716-0.19c0.392,0,0.428,0,0.86,0c0.243-0.028-0.299-0.037,0.43-0.054
				c-0.257-0.017-0.627-0.016-1.148-0.016c-0.428-0.045-1.906-0.052-3.175-0.009l-0.348,0.019c-0.105-0.013-0.399,0.059-0.432,0.08
				c-0.187,0.052-0.38,0.087-0.575,0.113c-0.391,0.05-0.788,0.062-1.194,0.077c-0.858,0.036-1.593,0.154-2.338,0.237
				c-1.48,0.192-2.898,0.405-4.482,0.774c-0.109-0.049-1.275,0.23-1.881,0.428c-0.275,0.042-0.134-0.065-0.615,0.053
				c-0.386,0.143,0.149,0.013,0.176,0.042c-0.523,0.168-1.716,0.564-2.128,0.656c-0.93,0.364-2.74,1.019-3.864,1.627
				c-0.479,0.137-1.166,0.389-2.121,0.859c0.024,0.071-0.155,0.216-0.308,0.354c-2.455,1.499-3.972,2.136-6.125,3.994
				c-0.666,0.428-1.588,1.172-2.513,2.035c-1.298,0.943-2.789,2.312-4.12,3.952c-1.332,1.638-2.484,3.548-3.27,5.386
				c-0.898,0.803-1.437,2.532-2.026,3.792c-0.482,0.998-0.983,2.004-1.393,3.033c-0.201,0.514-0.391,1.01-0.553,1.587
				c-0.164,0.582-0.283,1.167-0.345,1.754c-0.057,0.267,0.096,0.112,0.058,0.345c-0.356,1.522-0.512,3.439-0.651,5.084L5.103,51.55
				l0.004,0.153c0.029,1.008,0.201,1.326,0.145,1.192l-0.002-0.007l4.078-0.957l0.096-0.023l0.188-0.037
				c0.037-0.01,0.101-0.016,0.12-0.018c0.048-0.005,0.073,0,0.073,0c0.009,0.02-0.142-0.095-0.256-0.352l-4.432-9.953L5.006,52
				c0,0.041-0.001,0.079-0.001,0.117c-0.013,1.207-0.187,2.37-0.11,3.577c0.028,0.437,0.064,0.839,0.114,1.206l0.725,5.353
				L9.8,56.975c0.035-0.045-0.074,0.092-0.333,0.122c-0.126,0.024-0.282,0.044-0.485,0.057l-0.166,0.009l-0.005,0L5.15,57.337l0,0
				l0-0.002l0-0.003l0.001-0.006l0.002-0.012c0.002-0.014,0.005,0.036,0.008,0.051c0.007,0.063,0.015,0.122,0.022,0.181
				c0.027,0.161,0.048,0.247,0.07,0.328l0.067,0.253c0.048,0.165,0.098,0.323,0.152,0.473c0.11,0.301,0.231,0.574,0.371,0.823
				c0.126,1.209,0.858,2.465,0.884,3.697c0.099,0.22,0.215,0.144,0.306,0.578c0.083,0.298,0.016,0.317,0.026,0.478
				c0.152-0.05,0.078-0.198,0.25-0.058c-0.283-0.834-0.355-1.246-0.644-1.947c-0.028-0.212,0.006-0.306-0.071-0.626
				c-0.393-1.179-0.782-2.409-1.066-4.02L5.51,57.35c-0.002-0.014-0.005-0.065-0.007-0.049l-0.001,0.011l-0.001,0.005l0,0.003
				l0,0.001l3.311-0.157l0.003,0l0.01,0l0.168-0.01c0.202-0.013,0.356-0.032,0.482-0.058c0.256-0.031,0.358-0.166,0.325-0.12
				l-3.836,5.21L5.368,56.9c-0.049-0.434-0.091-0.885-0.125-1.349C5.153,54.338,5.202,53.096,5.198,52L5.161,41.587L9.55,51.5
				c0.119,0.269,0.276,0.375,0.254,0.351c-0.005-0.001-0.035-0.005-0.087,0.002c-0.065,0.007-0.041,0.005-0.176,0.03l-0.189,0.041
				l-0.047,0.012l-3.87,0.908l0.001,0.003l0.003,0.014c0.041,0.09-0.121-0.242-0.144-1.159l-0.003-0.112l0.02-0.29
				c0.041-0.593,0.065-1.145,0.038-1.631c0.059-0.349,0.196-0.185,0.271-0.437c-0.042-0.818,0.264-1.507,0.395-2.494
				c0.096-0.695,0.019-1.326,0.213-2.138c0.204-0.848,0.436-1.42,0.673-2.049c0.253-0.646,0.513-1.311,0.843-2.154
				c0.502-0.626,1.062-2.356,1.361-2.356c-0.02,0.369-0.601,0.963-0.615,1.448c0.157-0.275,0.32-0.596,0.449-0.669
				c-0.355,1.584-0.055,2.316-0.486,4.241c-0.51,1.525-0.713,2.838-0.736,3.81c-0.334,1.413-0.575,2.974-0.739,4.574l-0.014,0.136
				l0.003,0.12c0.015,0.601,0.12,0.821,0.095,0.769l-0.002-0.007l2.306-0.543l0.191-0.041c0.112-0.021,0.107-0.021,0.165-0.027
				c0.047-0.007,0.082-0.001,0.082-0.001c0.019,0.023-0.136-0.085-0.254-0.351l-2.598-5.864L6.863,52
				c-0.022,1.598-0.014,3.26,0.023,4.9l0.089,3.994L9.8,56.975c0.033-0.046-0.066,0.088-0.321,0.119
				c-0.126,0.026-0.28,0.045-0.482,0.058l-0.169,0.01l-1.836,0.087l0-0.001l0-0.002l0-0.004c0.001-0.007,0.002,0.032,0.003,0.046
				l0.008,0.149c0.256,2.681,0.81,5.115,1.492,7.188c0.107,0.636,0.235,1.235,0.436,1.86c0.208,0.599,0.429,1.245,0.767,1.95
				c0.063,0.942,0.695,2.372,1.449,3.717c0.74,1.354,1.587,2.621,1.899,3.433c0.754,0.462,1.976,2.643,2.338,3.387
				c0.391,0.093,1.074,1.097,1.491,1.732c-0.041,0.038-0.503-0.418-0.089,0.073c0.189,0.233,0.24,0.193,0.362,0.292
				c0.119,0.26,0.313,0.57,0.306,0.743c0.356,0.443,0.493,0.439,0.865,0.865c-0.162-0.059-0.302-0.08-0.565-0.312
				c-0.598-0.571-0.577-0.745-0.84-1.099c-0.06,0.076,0.105,0.296-0.219-0.015c0.038-0.299-0.682-0.718-0.77-1.155
				c0.186,0.217,0.346,0.379,0.451,0.424c-0.409-0.44-0.901-0.965-1.244-1.365c0.1,0.129,0.222,0.322,0.062,0.145
				c1.474,2.283,3.216,4.185,5.114,5.86c1.911,1.678,3.944,3.121,6.247,4.483c0.205,0.215,0.684,0.516,1.125,0.804
				c1.402,0.669,2.408,1.121,2.936,0.997c-1.662-0.77-3.012-1.353-5.466-2.99c-0.447-0.422-0.757-0.793-0.74-1.032
				c1.955,1.262,4.005,2.749,6.08,3.603c0.296,0.125,0.431,0.144,0.711,0.259c1.708,0.737,2.567,1.096,3.749,1.533
				c2.305,0.815,4.891,1.287,7.281,1.612c0.526,0.072,1.037,0.221,1.622,0.181c-1.35-0.185-2.706-0.37-3.68-0.503
				c-1.331-0.297-3.614-0.87-5.182-1.402c-1.519-0.618-2.833-1.182-4.216-1.817c-1.38-0.641-2.812-1.399-4.449-2.537
				c-0.066-0.262-0.491-0.489-1.01-0.895c0.164-0.147-0.198-0.486-0.766-0.949c-0.358-0.206,0.115,0.27-0.227,0.051
				c-0.298-0.307-0.568-0.604-0.525-0.761c0.309,0.238,0.673,0.5,0.795,0.654c-0.005-0.216-0.724-0.749-0.592-0.906
				c2.347,1.72,4.654,2.862,7.136,4.211c0.293,0.252,0.407,0.45,0.791,0.699c0.335,0.006-0.591-0.494-0.632-0.69
				c0.8,0.292,1.994,0.822,2.721,0.984c0.14,0.104,0.06,0.183,0.49,0.325c2.509,1.016,4.328,1.32,6.391,1.696
				c3.138,0.524,6.015,0.923,9.56,0.705c0.229,0.004-0.029,0.098,0.432,0.053c2.132-0.062,5.111-0.638,6.285-0.711
				c0.877-0.227,1.115-0.231,1.689-0.378c0.265-0.087,0.519-0.171,0.821-0.271c0.32-0.025,1.229-0.375,1.928-0.595
				c0.767-0.279,1.406-0.426,2.185-0.746c1.366-0.53,1.887-0.852,2.482-1.163c0.733-0.392,1.811-0.995,2.23-1.328
				c-0.219,0.099-0.434,0.196-0.658,0.297c-0.795,0.498-1.718,1.07-2.897,1.599c-0.741,0.336-1.248,0.447-2.012,0.79l-0.014-0.036
				c-2.051,0.822-3.642,1.201-5.216,1.515c-1.58,0.294-3.152,0.498-5.267,0.728c-1.107,0.023-2.134-0.034-2.998-0.156
				c1.48,0.005,1.966-0.127,3.388-0.231c1.78-0.29,3.877-0.628,5.993-1.192c2.119-0.548,4.257-1.284,6.108-2.152
				c2.802-1.192,5.015-2.635,7.369-4.458c0.383-0.203,1.463-1.115,2.207-1.771c0.203-0.206-0.016-0.077,0.372-0.432
				c1.524-1.48,1.772-1.467,2.836-2.584c0.195-0.197,0.476-0.605,0.713-0.89c0.345-0.406,0.992-1.209,1.25-1.553
				c0.93-1.25,1.608-2.539,2.471-3.986c1.206-2.091,2.371-4.573,3.193-7.08c0.876-1.992,1.376-5.264,1.799-7.986
				c0.031-2.15,0.334-5.639-0.27-7.615c-0.045-0.369,0.129-0.122,0.056-0.571c-0.272-1.201-0.374-2.572-0.805-3.288
				c-0.065-0.315-0.086-0.524-0.087-0.689c-0.527-1.784-1.23-3.518-2.095-5.315c-0.879-1.849-1.777-3.778-2.84-5.908
				c-0.435-1.51-0.918-2.882-1.686-4.393c-0.548-1.306-1.043-2.517-2.665-4.287c-1.962-1.692-3.564-2.588-4.738-3.25
				c-0.755-0.567-1.124-0.689-1.352-0.784c-1.805-1.236-3.342-2.148-5.345-3.185c-1.995-1.075-3.643-1.809-5.355-2.383
				c-1.708-0.569-3.457-0.991-5.639-1.294c-0.186-0.03-0.348-0.056-0.568-0.092c-0.272-0.017-1.727-0.327-1.975-0.295
				c0.366,0.05,0.944,0.159,1.604,0.285c0.665,0.126,1.403,0.205,2.059,0.326c0.439,0.098,1.222,0.23,1.953,0.406
				c0.918,0.219,1.705,0.474,2.453,0.726c0.219,0.07,0.458,0.146,0.54,0.172c0.596,0.21,1.071,0.418,1.838,0.743
				c1.702,0.743,2.193,1.052,3.678,1.817c3,1.578,5.641,3.706,6.735,4.134c0.947,0.837,1.441,0.848,2.267,1.494
				c1.076,0.957,0.904,0.711,1.886,1.741c0.796,1.205,1.297,2.336,1.795,3.568c0.487,1.24,0.967,2.586,1.599,4.301
				c0.42,0.739,0.8,1.466,0.879,1.98c-1.022-1.614-2.293-4.117-3.944-6.499c-1.613-2.405-3.682-4.576-5.347-5.919
				c0.306,0.371,0.747,0.783,1.159,1.185c1.107,1.128,2.187,2.382,3.19,3.774c1.03,1.369,1.98,2.877,2.889,4.477
				c1.069,1.902,2.237,3.614,3.093,5.915c0.236,0.685,0.435,1.3,0.631,1.935c0.182,0.616,0.367,1.242,0.587,1.987
				c-0.037,0.068,0.079,0.397-0.068,0.288c0.551,1.752,0.183,3.365,0.731,4.969C83.914,49.152,83.876,48.839,83.836,49.104z
				 M45.935,15.592c-0.177,0.016-0.143,0.003-0.001-0.01c-0.042,0-0.224,0.001-0.395,0.079c0.018-0.001,0.148-0.077,0.256-0.079
				c0.125-0.013,0.263-0.027,0.28-0.034c-0.112,0.009-0.256,0.011-0.378,0.029c-0.133,0.046-0.293,0.091-0.45,0.127
				c0.193-0.046,0.38-0.129,0.51-0.151c0.101-0.005,0.215-0.011,0.346-0.017C46.259,15.537,46.239,15.554,45.935,15.592z
				 M36.954,17.262c-0.163-0.071,1.751-0.619,2.189-0.698c0.439-0.096,1.186-0.222,0.717-0.089
				C39.341,16.621,37.748,16.966,36.954,17.262z M33.258,18.814c0.055,0.013,0,0.058-0.103,0.123
				c-0.753,0.249-2.327,1.091-2.887,1.245C31.493,19.564,31.849,19.437,33.258,18.814z M29.039,20.633
				c0.117-0.007-0.228,0.176-0.211,0.211c-0.184,0.06-0.562,0.274-0.669,0.28C28.577,20.851,28.652,20.87,29.039,20.633z
				 M28.906,21.25c-1.398,0.789-2.936,1.76-4.366,2.944c-1.239,1.016-2.192,2.237-3.141,3.093c0.855-1.149,2.531-2.648,3.353-3.518
				c1.141-0.83,2.58-1.704,3.434-2.328C28.331,21.453,28.903,21.117,28.906,21.25z M27.79,21.35l0.033,0.052
				c-0.502,0.326-1.378,0.96-1.486,0.887C26.901,21.85,27.144,21.715,27.79,21.35z M26.18,22.315
				c-0.081,0.08-0.099,0.13-0.067,0.156C25.597,22.843,25.629,22.651,26.18,22.315z M25.795,22.024
				c-0.203,0.034-0.604,0.385-0.864,0.552c-0.512,0.314-0.864,0.45-1.288,0.732c-0.768,0.537-0.959,0.874-1.892,1.63
				c-0.285,0.247-0.109,0.231-0.238,0.391c-2.004,1.902-3.767,3.897-5.394,6.132c-1.633,2.229-3.145,4.685-4.593,7.576
				c-0.289-0.404,0.674-2.071,0.039-2.106c1.493-3.266,3.287-5.313,4.921-7.768c1.372-1.55,2.682-2.634,4.502-4.177
				C22.873,23.393,24.947,22.093,25.795,22.024z M17.274,28.051c-0.339,0.361-0.378,0.255-0.619,0.47
				c-0.663,0.748-1.03,1.053-1.511,1.528c-0.533,0.602-1.25,1.592-1.873,2.567c-0.641,0.965-1.196,1.908-1.612,2.316
				c0.555-0.805,0.552-1.512,1.224-2.324c0.386-1.416,1.137-2.79,3.441-4.961c0.506-0.446,1.099-0.838,1.611-1.246
				c0.933-0.782,1.791-1.642,2.384-1.907C20.266,25.013,17.761,27.03,17.274,28.051z M21.127,27.617
				c-0.159,0.296-0.369,0.406-0.727,0.874C20.322,28.352,20.879,27.862,21.127,27.617z M11.567,45.991
				c-0.39,1.823-0.465,3.649-0.718,5.696l-0.012,0.094L10.05,51.7c0.03,0.001,0.03-0.001,0.082-0.006l0.243-0.046l0.446-0.105
				l0,0.003l0.007,0.031c0.011,0.06,0.065,0.269-0.005,0.539c-0.201,0.575-0.506,0.634-0.61,0.71L10.724,52
				c-0.088,1.643-0.313,2.698-0.279,4.9l-0.644-0.645c0.251-0.028,0.58,0.228,0.625,0.369c0.103,0.2,0.096,0.275,0.114,0.357
				l0.016,0.158c0.001,0.03,0.007,0.058,0.012,0.085c0.085,0.529,0.243,0.998,0.385,1.888c0.192,1.188,0.224,2.366,0.688,3.14
				c0.202,1.327,0.389,2.636,0.995,3.61c-0.445-0.214-1.201-1.714-1.684-2.738c-0.42-1.96-0.721-3.929-0.863-5.871l-0.005-0.094
				c-0.001-0.047-0.002-0.112-0.016-0.183c-0.014-0.046-0.03-0.231-0.267-0.26L9.984,56.9c0.001-1.658,0.013-3.294,0.062-4.9
				L9.91,52.22c0.067-0.038,0.201-0.088,0.258-0.292c0.02-0.095,0.001-0.165-0.005-0.199c-0.014-0.042,0.03-0.041-0.113-0.029
				l0.107,0.022c0.246-2.014,0.624-3.975,1.287-5.759L11.567,45.991z M15.748,72.851c0.065-0.002,0.212,0.356,0.271,0.324
				c0.575,1.307,1.362,2.159,1.978,3.015c0.307,0.399,0.493,0.892,0.888,1.415c0.513,0.711,1.411,1.444,1.435,1.885
				c0.646,0.51,1.536,1.722,2.304,2.227c-0.154,0.104-1.239-0.774-0.756-0.025c0.316,0.211,0.433,0.083,0.727,0.257
				c0.647,0.589,1.023,1.033,0.958,1.24c-0.52-0.3-1.442-1.032-2.31-1.887c-0.866-0.856-1.669-1.832-2.088-2.478
				c-0.753-0.733-1.185-1.481-1.752-2.387c-0.108-0.006,0.057,0.206,0.184,0.388c-0.924-0.964-1.143-2.464-1.88-3.633
				C15.611,72.971,15.878,73.109,15.748,72.851z M23.991,83.326c0.208,0.206,0.295,0.354,0.463,0.541
				c-0.114,0.04-0.331-0.067-0.652-0.321C23.552,83.233,23.768,83.273,23.991,83.326z M30.625,86.333
				c1.644,1.023,3.432,1.885,5.161,2.594c2.453,1.064,5.857,2.157,8.595,2.477c0.998,0.247,3.31,0.577,4.094,0.467
				c2.092,0.177,4.152,0.008,6.033-0.245c2.571-0.23,5.337-0.99,8.092-1.894c0.614-0.222,1.097-0.336,1.719-0.584
				c0.537-0.224,1.188-0.514,1.781-0.806c0.866-0.396,1.7-0.791,2.501-1.252c0.364-0.218,0.841-0.512,1.184-0.744
				c0.231-0.149,0.393-0.218,0.607-0.351c0.656-0.419,1.411-1.004,1.937-1.384c1.761-1.481,3.278-2.923,4.983-5.082
				c-0.706,1.017-1.572,2.047-1.712,2.423c-0.983,0.993-1.927,1.911-3.022,2.747c-0.387,0.311-0.658,0.505-0.995,0.743
				c-0.335,0.241-0.727,0.539-1.405,0.991c-0.599,0.427-1.19,0.795-1.77,1.159c-1.578,0.929-3.299,1.708-4.964,2.364
				c-1.419,0.569-2.859,1.087-4.017,1.327c-2.354,0.732-5.371,1.066-7.458,1.329c-1.733,0.029-3.566,0.089-5.043-0.026
				c-1.371-0.315-3.187-0.8-5.587-1.292c-1.938-0.409-3.164-0.344-4.685-0.719c-0.762-0.389-1.388-0.479-2.217-0.843
				c-1.249-0.557-2.525-1.448-4.268-2.345c0.407-0.161,0.534-0.388,1.014-0.397C31.074,86.795,30.548,86.469,30.625,86.333z
				 M77.907,78.746c-0.001-0.059,0.088-0.214-0.001-0.181c0.489-0.548,0.909-1.333,1.229-1.874c1.103-1.756,1.808-3.165,2.61-5.017
				c0.182-0.331,0.348-0.633,0.526-0.956c0.281-0.639,0.533-1.287,0.761-1.932c0.252-0.635,0.443-1.28,0.633-1.901
				c0.412-1.349,0.638-2.805,0.873-4.092c0.216-1.436,0.639-2.872,0.485-4.127c0.16-1.434,0.343-3.448,0.183-4.689
				c0.076-0.607,0.04-1.423,0.013-2.289c-0.069-0.87-0.122-1.796-0.143-2.603c-0.264-1.516-0.656-2.708-1.056-3.913
				c-0.414-1.226-0.788-2.384-1.279-4.07c0.666,1.078,1.022,2.763,1.491,3.546c0.262,1.234,0.737,2.33,0.962,3.203
				c0.195,0.741,0.315,1.727,0.461,2.554c0.103,0.482,0.192,0.897,0.289,1.355c0.075,0.462,0.145,0.998,0.198,1.791
				c0.012,0.63,0.023,1.226,0.035,1.927c-0.01,1.462-0.282,3.071-0.394,4.235c-0.032,0.317-0.006,0.652-0.048,0.964
				c-0.09,0.739-0.396,1.597-0.531,2.41c-0.027,0.122-0.054,0.553-0.086,0.685c-0.102,0.394-0.254,0.805-0.375,1.175
				c-0.738,2.523-1.859,5.944-3.504,8.814c-0.345,0.575-0.652,1.103-1.009,1.663c-0.234,0.38-0.469,0.814-0.719,1.197
				C78.976,77.373,78.446,77.959,77.907,78.746z M83.981,48.566c-0.047-0.351-0.099-0.249-0.078-0.512
				C84.027,47.93,84.137,48.646,83.981,48.566z"/>
			<path fill-rule="evenodd" clip-rule="evenodd" fill="#F2F2F2" d="M8.5,67.885c-0.133-0.3-0.255-0.45-0.383-0.701
				c-0.055-0.348-0.284-0.907-0.458-1.437c-0.178-0.515-0.324-1.021-0.275-1.326c0.156,0.53,0.302,1.027,0.443,1.506
				c0.154,0.514,0.322,0.968,0.484,1.416c0.319,0.912,0.66,1.759,1.045,2.702C9.068,69.799,8.411,67.957,8.5,67.885z"/>
			<path fill-rule="evenodd" clip-rule="evenodd" fill="#F2F2F2" d="M9.872,71.509C9.649,71,9.525,71.041,9.312,70.567
				c0.214,0.135,0.499,0.774,0.711,0.875C10.19,71.805,9.865,71.279,9.872,71.509z"/>
			<path fill-rule="evenodd" clip-rule="evenodd" fill="#F2F2F2" d="M88.093,42.658c-0.374-0.657-0.969-2.504-1.482-3.302
				C87.182,40.138,87.655,41.584,88.093,42.658z"/>
		</g>
	</g>
</g>
<path fill="#F2F2F2" d="M16.9,53.1c0.1-3.5,0.7-6.9,2-10.2c1.4-3.8,3.4-7.2,6.1-10.2c4.7-5.3,10.5-8.6,17.4-10.1
	c3.3-0.7,6.7-0.8,10.1-0.5c5.5,0.6,10.4,2.4,14.9,5.6c7.2,5.1,11.7,11.9,13.2,20.6c1.7,9.3-0.4,17.8-6.1,25.3
	c-4.7,6.2-11,10.2-18.6,11.9c-3.7,0.8-7.5,1-11.3,0.5c-5.7-0.8-10.8-2.9-15.3-6.4c-0.7-0.6-0.8-0.6-0.2-1.3c1.5-1.9,3.3-3.6,5.7-4.3
	c2.9-0.9,5.5-0.3,8,1.2c0.8,0.5,1.5,1,2.2,1.6c0.6,0.5,0.8,0.5,1.4,0c1.9-1.8,3.5-4,4.9-6.2c1.7-2.8,3-5.8,3.9-9
	c0.3-1.1,0.4-2.2,0.7-3.3c0.3-1.2,0.8-2.4,1.5-3.5c1.3-1.8,2.9-2.2,5-1.5c3.2,1.1,6.2,0.5,8.8-1.6c1.6-1.3,2.8-2.9,3.2-5
	c0.5-2.7,0.3-5.4-1.4-7.7c-1.6-2.1-3.7-3.1-6.2-3.5c-1.4-0.2-2.9-0.1-4.2,0.4c-1,0.4-1.9,1.1-2.9,1.6c-1.3,0.8-1.3,0.8-2.1-0.5
	c-0.3-0.5-0.6-0.9,0.1-1.2c0.1,0,0.1-0.1,0.1-0.2c0.3-0.6-0.6-2.6-1.3-2.8c-0.3-0.1-0.5,0.1-0.7,0.2c-0.7,0.4-1.4,0.9-2.1,1.3
	c-0.5,0.4-0.7,0.8-0.4,1.4c0.2,0.4,0.4,0.8,0.6,1.2c0.4,0.6,0.7,0.8,1.3,0.4c0.4-0.2,0.5-0.2,0.7,0.2c0,0.1,0.1,0.1,0.1,0.2
	c0.8,1.3,0.8,1.3-0.5,2.1c-1,0.6-2.1,1.2-3.1,1.8c-0.3,0.2-0.5,0.2-0.7-0.2c-0.2-0.5-0.5-0.9-0.8-1.3c-0.2-0.3-0.1-0.5,0.1-0.6
	c0.7-0.6,0.8-0.8,0.4-1.6c-0.2-0.3-0.3-0.7-0.5-1c-0.4-0.6-0.8-0.7-1.4-0.3c-0.7,0.4-1.3,0.9-2,1.3c-0.6,0.4-0.7,0.9-0.4,1.5
	c0.2,0.4,0.5,0.8,0.7,1.2c0.3,0.5,0.6,0.6,1.1,0.3c0.4-0.2,0.6-0.1,0.8,0.3c0.2,0.4,0.5,0.8,0.7,1.1s0.2,0.4-0.1,0.6
	c-1.4,0.8-2.9,1.7-4.3,2.5c-0.3,0.2-0.5,0.2-0.6-0.1c-0.3-0.5-0.6-0.9-0.9-1.4c-0.2-0.3-0.2-0.4,0.1-0.6c0.5-0.3,0.6-0.8,0.3-1.4
	c-0.2-0.4-0.5-0.9-0.7-1.3c-0.3-0.5-0.7-0.6-1.3-0.3c-0.7,0.5-1.5,0.9-2.2,1.4c-0.5,0.3-0.6,0.8-0.3,1.4c0.2,0.4,0.5,0.8,0.7,1.2
	c0.3,0.5,0.8,0.7,1.3,0.3c0.4-0.3,0.6-0.2,0.7,0.2c0.1,0.3,0.3,0.5,0.5,0.8c0.5,0.8,0.5,0.8-0.3,1.3c-1.2,0.7-2.4,1.4-3.6,2.1
	c-0.4,0.3-0.7,0.3-1-0.2c-0.1-0.2-0.2-0.5-0.4-0.7c-0.4-0.5-0.6-0.9,0.1-1.3c0.3-0.2,0.3-0.6,0.2-1c-0.3-0.6-0.6-1.1-0.9-1.6
	c-0.3-0.4-0.7-0.5-1.1-0.2c-0.7,0.5-1.5,1-2.2,1.5c-0.5,0.4-0.6,0.9-0.3,1.4c0.2,0.4,0.4,0.8,0.6,1.1c0.4,0.6,0.7,0.7,1.4,0.3
	c0.3-0.2,0.4-0.1,0.6,0.2c0.3,0.5,0.9,1,0.8,1.5c-0.1,0.5-0.9,0.6-1.3,0.9c-1,0.6-2.1,1.2-3.1,1.8c-0.4,0.2-0.5,0.1-0.7-0.2
	c-0.1-0.2-0.3-0.5-0.5-0.7c-0.3-0.4-0.5-0.8,0.1-1.1c0.4-0.2,0.4-0.7,0.2-1.1c-0.2-0.5-0.5-1-0.8-1.4c-0.3-0.5-0.7-0.6-1.2-0.3
	c-0.7,0.4-1.4,0.9-2.1,1.3c-0.5,0.4-0.7,0.8-0.4,1.4c0.2,0.4,0.4,0.9,0.7,1.3c0.3,0.5,0.7,0.6,1.2,0.3c0.4-0.2,0.5-0.2,0.7,0.2
	c0.8,1.4,0.9,1.4-0.5,2.2c-1.1,0.6-2.1,1.2-3.2,1.9c-0.5,0.3-0.7,0.2-0.9-0.2c-0.1-0.2-0.3-0.5-0.5-0.7c-0.3-0.4-0.5-0.8,0.1-1.1
	c0.5-0.3,0.4-0.8,0.2-1.2c-0.2-0.5-0.5-0.9-0.7-1.3c-0.3-0.5-0.7-0.6-1.2-0.3c-0.7,0.4-1.4,0.9-2.1,1.3c-0.6,0.4-0.7,0.9-0.4,1.6
	c0.2,0.3,0.4,0.7,0.5,1c0.4,0.7,0.7,0.8,1.4,0.4c0.3-0.2,0.4-0.1,0.6,0.1l0.1,0.1c0.3,0.5,0.8,0.9,0.8,1.4c-0.1,0.5-0.8,0.6-1.3,0.9
	c-1.3,0.9-2.4,1.9-2.7,3.6c-0.1,0.8,0.1,1.5,0.4,2.2c0.6,1.3,0.3,3.4-0.5,4.3c-0.3,0.3-0.5,0.4-0.7-0.1c-1.7-3.5-2.8-7.1-3.2-10.9
	C16.9,56,16.9,54.5,16.9,53.1z"/>
<path fill="#F2F2F2" d="M62.5,42.1c0,1.1-1,2.1-2.1,2.1s-2.1-1-2.1-2.1s1-2.1,2.1-2.1C61.5,40.1,62.5,41,62.5,42.1z"/>
<path fill="#F2F2F2" d="M34.8,55c1.1,0,2.1,1,2.1,2.1s-1,2-2,2.1c-1.1,0-2.1-0.9-2.1-2.1C32.7,56,33.6,55,34.8,55z"/>
<path fill="#F2F2F2" d="M43,53.3c0,1.1-0.9,2.1-2.1,2.1c-1.1,0-2.1-0.9-2.1-2.1c0-1.1,0.9-2,2-2C42,51.3,43,52.2,43,53.3z"/>
<path fill="#F2F2F2" d="M47.6,51.6c-1.2,0-2-0.8-2-2s0.8-2,2-2s2,0.8,2,2S48.8,51.6,47.6,51.6z"/>
<path fill="#F2F2F2" d="M55.7,45.9c0,1.2-0.9,2-2,2c-1.2,0-2-0.9-2-2.1c0-1.2,0.9-2,2.1-2C54.9,43.8,55.7,44.7,55.7,45.9z"/>
<path fill="#F2F2F2" d="M30.1,61.1c0,1.2-0.8,2.1-2,2.1c-1.1,0-2-0.9-2-2.1c0-1.2,0.9-2.1,2.1-2C29.2,59,30.1,59.9,30.1,61.1z"/>
</svg>
