<?xml version="1.0" encoding="utf-8"?>
<!-- Generator: Adobe Illustrator 17.0.0, SVG Export Plug-In . SVG Version: 6.00 Build 0)  -->
<!DOCTYPE svg PUBLIC "-//W3C//DTD SVG 1.1//EN" "http://www.w3.org/Graphics/SVG/1.1/DTD/svg11.dtd">
<svg version="1.1" id="圖層_1" xmlns="http://www.w3.org/2000/svg" xmlns:xlink="http://www.w3.org/1999/xlink" x="0px" y="0px"
	 width="174.4px" height="174.4px" viewBox="0 0 174.4 174.4" style="enable-background:new 0 0 174.4 174.4;" xml:space="preserve"
	>
<g>
	<path style="fill:#F2921A;" d="M93.6,0.5c1.8,0.6,3.6,0.6,5.5,0.6c8.5,1.2,17,3.6,24.8,7.3c10.3,4.8,19.4,11.5,27.3,20.6
		c10.3,11.5,17,24.8,20.6,40.6c1.8,7.9,1.8,15.8,1.8,23.6c-1.2,17.6-7.3,33.9-18.8,47.9c-11.5,13.9-25.4,24.2-43,29.1
		c-6.1,1.8-12.1,3-18.8,3.6c-21.8,1.2-41.8-4.2-58.8-17.6c-16.4-12.7-27.3-29.1-31.5-49.1c-1.2-4.2-1.8-9.1-1.8-13.3v-0.6
		c0-3.6,0-7.3,0-10.9c0.6,0,0-0.6,0-0.6c0.6-5.5,1.2-10.3,2.4-15.1c3-15.1,10.3-27.9,20.6-38.8C32.4,19.3,42.1,12,53,7.7
		c7.3-3,13.9-4.8,21.8-6.1c1.8,0,3.6-0.6,5.5-0.6C84.5,0.5,88.7,0.5,93.6,0.5z M86.9,167.7c44.2,0,81.2-36.3,81.2-81.2
		c0-44.2-35.7-81.2-81.2-81.2C42.7,5.9,5.7,41.1,5.7,86.5S42.1,167.7,86.9,167.7z"/>
	<path style="fill:#F2921A;" d="M158.4,85.9c0,17-4.8,31.5-14.5,44.2c-10.3,13.9-24.2,22.4-41.2,26.7c-7.9,1.8-15.8,2.4-24.2,1.2
		c-12.7-1.8-24.8-6.7-35.1-14.5c-1.8-1.2-1.8-1.2-0.6-3c3.6-4.2,7.9-8.5,13.3-9.7c6.1-1.8,12.1,0,17,3c1.8,1.2,3.6,2.4,4.8,3.6
		c1.2,1.2,1.8,1.2,3,0c3.6-3.6,6.7-7.3,9.1-11.5c4.8-6.7,7.9-14.5,10.3-22.4c0.6-3,1.2-6.7,2.4-9.7c0.6-1.8,1.8-3.6,3-5.5
		c2.4-3.6,6.1-4.8,10.3-3c4.8,1.8,9.7,1.8,14.5-0.6c6.7-2.4,10.9-7.3,12.7-13.9c1.2-6.1,0.6-12.1-3-17.6c-3.6-4.8-8.5-6.7-13.9-7.9
		c-3-0.6-6.7,0-9.1,1.2c-2.4,1.2-4.2,2.4-6.7,3.6c-3,1.8-3,1.8-4.8-1.2c-0.6-1.2-1.8-1.8,0-3c0,0,0-0.6,0.6-0.6
		c0.6-1.2-1.2-5.5-3-6.1c-0.6,0-1.2,0-1.8,0.6c-1.8,1.2-3,1.8-4.8,3c-1.2,0.6-1.2,1.8-0.6,3c0.6,1.2,1.2,1.8,1.2,3
		c0.6,1.2,1.8,1.8,3,0.6c0.6-0.6,1.2-0.6,1.8,0.6c2.4,3.6,2.4,3.6-1.2,5.5c-2.4,1.2-4.2,2.4-6.1,3.6c-1.2,0.6-1.8,0.6-1.8-0.6
		c0-0.6-0.6-1.2-0.6-1.2c-0.6-1.2-1.8-2.4,0-3c0.6-0.6,0.6-1.2,0.6-1.8c-0.6-1.2-1.2-3-2.4-4.2c-0.6-0.6-1.2-0.6-2.4,0
		c-1.8,1.2-3.6,2.4-4.8,3.6c-1.2,0.6-1.2,1.8-0.6,3c0.6,1.2,1.2,1.8,1.8,3c0.6,1.2,1.2,1.2,2.4,0.6c0.6-0.6,1.2,0,1.2,0.6
		c0.6,1.2,1.8,2.4,1.8,3.6c0,1.2-1.8,1.2-3,2.4c-2.4,1.2-4.8,2.4-6.7,4.2c-0.6,0.6-1.2,0.6-1.8-0.6c-0.6-0.6-0.6-1.2-1.2-1.8
		c-0.6-1.2-1.2-1.8,0-3c0.6-0.6,0.6-1.8,0-2.4c-1.2-1.2-1.2-4.2-3-3.6c-2.4,0.6-4.8,2.4-6.7,4.2c0,0.6-0.6,0.6,0,1.2
		c0.6,1.2,1.2,3,2.4,4.2c0.6,0.6,1.8,0.6,2.4,0c0.6-0.6,1.2-0.6,1.8,0.6c2.4,3.6,2.4,3.6-1.2,5.5c-2.4,1.2-4.2,2.4-6.7,3.6
		c-0.6,0.6-1.2,0.6-1.8-0.6c-0.6-0.6-0.6-1.2-1.2-1.8c-0.6-1.2-1.2-1.8,0-3c1.2-0.6,1.2-1.8,0-3c-1.2-1.2-1.2-3.6-3.6-3.6
		c-0.6,0-0.6,0-1.2,0.6c-1.2,1.2-3,1.8-4.2,3c-1.2,1.2-1.8,1.8-0.6,3.6c0.6,0.6,0.6,1.8,1.2,2.4c0.6,1.2,1.8,1.2,3,0.6
		c0.6-0.6,1.2,0,1.2,0.6c0.6,1.2,1.8,1.8,1.8,3s-1.8,1.2-3,1.8c-2.4,1.2-4.8,2.4-6.7,4.2c-0.6,0.6-1.2,0.6-1.2-0.6
		c0-0.6-0.6-1.2-1.2-1.8c-0.6-1.2-1.2-1.8,0-2.4c0.6-0.6,0.6-1.8,0.6-2.4c-0.6-1.2-1.2-2.4-1.8-3c-0.6-1.2-1.8-1.2-2.4-0.6
		c-1.8,1.2-3,1.8-4.8,3c-1.2,0.6-1.2,1.8-0.6,3c0.6,1.2,1.2,1.8,1.8,3s1.8,1.2,2.4,0.6c1.2-0.6,1.2,0,1.8,0.6c1.8,3,1.8,3-1.2,4.2
		c-2.4,1.2-4.8,3-7.9,4.2c-0.6,0.6-1.2,0-1.2-0.6c-0.6-0.6-0.6-1.2-1.2-1.8c-0.6-1.2-1.2-1.8,0-3c0.6-0.6,0.6-1.8,0.6-2.4
		c-0.6-1.2-1.2-2.4-1.8-3c0.6-1.8,0-1.8-1.2-1.2c-1.8,1.2-3,1.8-4.8,3c-1.2,1.2-1.2,1.8-0.6,3.6c0.6,0.6,0.6,1.8,1.2,2.4
		c0.6,1.2,1.8,1.8,3,0.6c0.6-0.6,1.2,0,1.2,0.6c2.4,3,2.4,3-1.2,5.5c-3,1.8-5.5,4.2-6.1,7.9c0,1.8,0,3,1.2,4.8
		c1.2,3,0.6,7.3-1.2,9.7c-0.6,0.6-1.2,0.6-1.8,0c-3.6-7.9-6.1-15.8-7.3-24.2C14.2,75,19,57.4,31.2,42.3c10.3-12.7,23-21.2,39.4-24.8
		c7.9-1.8,16.4-2.4,24.2-1.8c14.5,1.8,27.3,7.3,38.2,16.4c13.3,10.9,21.2,24.8,24.2,41.8C158.4,78,158.4,82.3,158.4,85.9z"/>
	<path style="fill:#F2921A;" d="M55.4,98c-2.4,0-4.8-2.4-4.2-4.8c0-2.4,2.4-4.8,4.8-4.8c2.4,0,4.8,2.4,4.8,4.8
		C59.6,96.2,57.8,98,55.4,98z"/>
	<path style="fill:#F2921A;" d="M117.2,60.5c0,2.4-2.4,4.8-4.8,4.8c-2.4,0-4.8-2.4-4.8-4.8c0-2.4,2.4-4.8,4.8-4.8
		C114.8,55.6,116.6,58,117.2,60.5z"/>
	<path style="fill:#F2921A;" d="M73.6,85.3c0,2.4-1.8,4.8-4.8,4.8c-2.4,0-4.8-1.8-4.8-4.2c0-2.4,1.8-4.8,4.8-4.8
		C71.7,80.4,73.6,82.9,73.6,85.3z"/>
	<path style="fill:#F2921A;" d="M79.6,76.8c0-2.4,1.8-4.2,4.8-4.2c2.4,0,4.2,1.8,4.2,4.8c0,2.4-1.8,4.2-4.8,4.2
		C80.8,81,79.6,79.2,79.6,76.8z"/>
	<path style="fill:#F2921A;" d="M102,68.3c0.6,2.4-1.8,4.2-4.2,4.8c-2.4,0-4.8-1.8-4.8-4.8c0-2.4,1.8-4.2,4.8-4.2
		C99.6,64.1,102,65.9,102,68.3z"/>
	<path style="fill:#F2921A;" d="M45.1,102.3c0,2.4-1.8,4.8-4.2,4.8s-4.2-1.8-4.2-4.8c0-2.4,1.8-4.8,4.8-4.2
		C43.3,98,45.1,99.8,45.1,102.3z"/>
</g>
</svg>
