<svg id="search" xmlns="http://www.w3.org/2000/svg" xmlns:xlink="http://www.w3.org/1999/xlink" viewBox="-486 360 50 50"><style>.st0{clip-path:url(#SVGID_2_)}.st1{fill:#f4f4f4}</style><defs><path id="SVGID_1_" d="M-486 360h50v50h-50z"/></defs><clipPath id="SVGID_2_"><use xlink:href="#SVGID_1_" overflow="visible"/></clipPath><g class="st0"><path class="st1" d="M-456.3 389.7c-5.1 5.1-13.3 5.1-18.4 0-5.1-5.1-5.1-13.3 0-18.4s13.3-5.1 18.4 0c5.1 5.1 5.1 13.4 0 18.4zM-473 373c-4.2 4.2-4.2 10.9 0 15.1 4.2 4.2 10.9 4.2 15.1 0 4.2-4.2 4.2-10.9 0-15.1-4.2-4.2-11-4.2-15.1 0z"/><path class="st1" d="M-443.5 400.8l-1.7 1.7-12.8-12.8 1.7-1.7 12.8 12.8z"/></g></svg>